<svg width="27" height="24" viewBox="0 0 27 24" fill="none" xmlns="http://www.w3.org/2000/svg">
<path fill-rule="evenodd" clip-rule="evenodd" d="M23.625 14.8835C23.0283 14.8835 22.456 14.6423 22.034 14.2129C21.6121 13.7834 21.375 13.201 21.375 12.5937V8.0142C21.375 5.8887 20.5453 3.85023 19.0685 2.34728C17.5916 0.844327 15.5886 0 13.5 0C11.4114 0 9.40838 0.844327 7.93153 2.34728C6.45468 3.85023 5.625 5.8887 5.625 8.0142V12.5937C5.625 13.201 5.38795 13.7834 4.96599 14.2129C4.54403 14.6423 3.97174 14.8835 3.375 14.8835C2.47989 14.8835 1.62145 15.2454 0.988512 15.8895C0.355577 16.5336 0 17.4072 0 18.3182C0 19.2291 0.355577 20.1027 0.988512 20.7468C1.62145 21.3909 2.47989 21.7528 3.375 21.7528H10.3275C10.5662 22.412 10.9977 22.9809 11.564 23.3827C12.1303 23.7846 12.804 24 13.4944 24C14.1847 24 14.8584 23.7846 15.4247 23.3827C15.991 22.9809 16.4226 22.412 16.6612 21.7528H23.625C24.5201 21.7528 25.3786 21.3909 26.0115 20.7468C26.6444 20.1027 27 19.2291 27 18.3182C27 17.4072 26.6444 16.5336 26.0115 15.8895C25.3786 15.2454 24.5201 14.8835 23.625 14.8835ZM23.625 19.4631H3.375C3.07663 19.4631 2.79048 19.3424 2.5795 19.1277C2.36853 18.913 2.25 18.6218 2.25 18.3182C2.25 18.0145 2.36853 17.7233 2.5795 17.5086C2.79048 17.2939 3.07663 17.1733 3.375 17.1733C4.56847 17.1733 5.71305 16.6908 6.55697 15.832C7.40088 14.9731 7.875 13.8083 7.875 12.5937V8.0142C7.875 6.49598 8.46763 5.03993 9.52252 3.96639C10.5774 2.89286 12.0082 2.28977 13.5 2.28977C14.9918 2.28977 16.4226 2.89286 17.4775 3.96639C18.5324 5.03993 19.125 6.49598 19.125 8.0142V12.5937C19.125 13.8083 19.5991 14.9731 20.443 15.832C21.2869 16.6908 22.4315 17.1733 23.625 17.1733C23.9234 17.1733 24.2095 17.2939 24.4205 17.5086C24.6315 17.7233 24.75 18.0145 24.75 18.3182C24.75 18.6218 24.6315 18.913 24.4205 19.1277C24.2095 19.3424 23.9234 19.4631 23.625 19.4631Z" fill="#ABABAD"/>
</svg>
