<svg width="40" height="40" viewBox="0 0 40 40" fill="none" xmlns="http://www.w3.org/2000/svg">
<path d="M19.9992 0C14.6951 0 9.60822 2.10705 5.85764 5.85763C2.10706 9.60821 6.217e-08 14.6951 6.217e-08 19.9992C-0.000206977 22.6244 0.516699 25.2238 1.52121 27.6492C2.52571 30.0746 3.99815 32.2783 5.85441 34.1346C7.71067 35.9908 9.9144 37.4633 12.3398 38.4678C14.7651 39.4723 17.3646 39.9892 19.9898 39.989H20.0102C22.6353 39.989 25.2347 39.4719 27.66 38.4673C30.0853 37.4628 32.2889 35.9903 34.1451 34.1341C36.0014 32.2779 37.4738 30.0742 38.4784 27.649C39.4829 25.2237 40 22.6243 40 19.9992C39.9996 14.6949 37.8922 9.60807 34.1414 5.85754C30.3905 2.107 25.3035 -1.64744e-08 19.9992 0Z" fill="#ABABAD"/>
<path fill-rule="evenodd" clip-rule="evenodd" d="M24.22 20.7964C25.6975 19.879 26.8358 18.5052 27.4625 16.8829C28.0892 15.2606 28.1702 13.4783 27.6932 11.8059C27.2162 10.1334 26.2072 8.66197 24.8191 7.61435C23.4309 6.56673 21.7391 6 20 6C18.2609 6 16.5691 6.56673 15.1809 7.61435C13.7927 8.66197 12.7837 10.1334 12.3068 11.8059C11.8298 13.4783 11.9108 15.2606 12.5375 16.8829C13.1642 18.5052 14.3025 19.879 15.78 20.7964C13.795 21.5296 12.0345 22.7657 10.6707 24.3837C9.30694 26.0017 8.38667 27.946 8 30.0264H10C10.5013 27.7556 11.7627 25.7239 13.5757 24.2675C15.3886 22.811 17.6445 22.0172 19.97 22.0172C22.2955 22.0172 24.5514 22.811 26.3643 24.2675C28.1773 25.7239 29.4387 27.7556 29.94 30.0264H31.94C31.5503 27.9431 30.6267 25.9965 29.2596 24.377C27.8924 22.7574 26.1284 21.5202 24.14 20.7864L24.22 20.7964ZM14.01 14.0364C14.01 12.8498 14.3619 11.6897 15.0212 10.703C15.6805 9.71632 16.6175 8.94729 17.7139 8.49316C18.8103 8.03904 20.0167 7.92021 21.1805 8.15172C22.3444 8.38323 23.4135 8.95468 24.2526 9.79379C25.0918 10.6329 25.6632 11.702 25.8947 12.8659C26.1262 14.0298 26.0074 15.2362 25.5533 16.3325C25.0991 17.4289 24.3301 18.366 23.3434 19.0253C22.3567 19.6845 21.1967 20.0364 20.01 20.0364C18.4187 20.0364 16.8926 19.4043 15.7673 18.2791C14.6421 17.1539 14.01 15.6277 14.01 14.0364Z" fill="white"/>
</svg>
