<svg width="31" height="30" viewBox="0 0 31 30" fill="none" xmlns="http://www.w3.org/2000/svg">
<path fill-rule="evenodd" clip-rule="evenodd" d="M14.1141 19.02C13.8441 19.02 13.5941 18.92 13.4041 18.72L10.3941 15.71C10.0041 15.32 10.0041 14.68 10.3941 14.28C10.5841 14.09 10.8341 13.98 11.1041 13.98C11.3741 13.98 11.6241 14.09 11.8141 14.28L13.7541 16.22C13.8541 16.32 13.9741 16.36 14.1041 16.36C14.2341 16.36 14.3541 16.31 14.4541 16.22L19.4041 11.27C19.5941 11.08 19.8441 10.98 20.1141 10.98C20.3841 10.98 20.6341 11.08 20.8241 11.27C21.2141 11.67 21.2141 12.3 20.8241 12.7L14.8141 18.71C14.6341 18.91 14.3841 19.02 14.1141 19.02Z" fill="#78BC9C"/>
<path fill-rule="evenodd" clip-rule="evenodd" d="M21.2433 3.06C21.6133 3.06 21.9533 2.84 22.1033 2.49C22.2033 2.26 22.2133 2 22.1133 1.77C22.0233 1.53 21.8433 1.35 21.6133 1.25C19.7133 0.42 17.7033 0 15.6133 0C7.34328 0 0.613281 6.73 0.613281 15C0.613281 23.27 7.34328 30 15.6133 30C23.8833 30 30.6133 23.27 30.6133 15C30.6133 12.91 30.1933 10.9 29.3633 9C29.2133 8.65 28.8733 8.43 28.5033 8.43C28.3733 8.43 28.2433 8.46 28.1233 8.51C27.8933 8.61 27.7133 8.8 27.6233 9.03C27.5333 9.26 27.5333 9.52 27.6333 9.75C28.3533 11.4 28.7233 13.17 28.7233 14.99C28.7233 22.22 22.8433 28.1 15.6133 28.1C8.38328 28.1 2.50328 22.22 2.50328 14.99C2.50328 7.76 8.38328 1.88 15.6133 1.88C17.4333 1.88 19.2033 2.25 20.8633 2.97C20.9833 3.04 21.1133 3.06 21.2433 3.06Z" fill="#78BC9C"/>
<path fill-rule="evenodd" clip-rule="evenodd" d="M9.98328 3.06C9.61328 3.06 9.27328 2.84 9.12328 2.49C9.02328 2.26 9.01328 2 9.11328 1.77C9.20328 1.53 9.38328 1.35 9.61328 1.25C11.5133 0.42 13.5233 0 15.6133 0C23.8833 0 30.6133 6.73 30.6133 15C30.6133 23.27 23.8833 30 15.6133 30C7.34328 30 0.613281 23.27 0.613281 15C0.613281 12.91 1.03328 10.9 1.86328 9C2.01328 8.65 2.35328 8.43 2.72328 8.43C2.85328 8.43 2.98328 8.46 3.10328 8.51C3.33328 8.61 3.51328 8.8 3.60328 9.03C3.69328 9.26 3.69328 9.52 3.59328 9.75C2.87328 11.4 2.50328 13.17 2.50328 14.99C2.50328 22.22 8.38328 28.1 15.6133 28.1C22.8433 28.1 28.7233 22.22 28.7233 14.99C28.7233 7.76 22.8433 1.88 15.6133 1.88C13.7933 1.88 12.0233 2.25 10.3633 2.97C10.2433 3.04 10.1133 3.06 9.98328 3.06Z" fill="#78BC9C"/>
</svg>
