<svg width="179" height="228" viewBox="0 0 179 228" fill="none" xmlns="http://www.w3.org/2000/svg">
<g filter="url(#filter0_d_210_1794)">
<path fill-rule="evenodd" clip-rule="evenodd" d="M156.09 16L91.4696 100.17C88.8096 103.63 85.8996 106.87 82.7596 109.85C79.6096 112.85 76.2296 115.6 72.6496 118.07C70.4596 119.58 68.7296 120.76 67.1996 121.79C62.1996 125.18 59.2996 127.15 57.3496 129.27C56.9996 129.64 56.6596 130.07 56.3496 130.48C55.3896 131.78 54.6496 133.26 54.1796 134.84C53.7296 136.36 53.5396 138 53.6496 139.68C53.8996 143.54 55.6896 146.93 58.3796 149.29C61.0696 151.66 64.6596 152.99 68.5196 152.75C71.1596 152.58 73.5796 151.69 75.6096 150.28C77.6996 148.82 79.3696 146.81 80.4196 144.47L80.4296 144.46C81.5496 142.1 82.4996 138.96 83.9596 134.11C84.5296 132.24 85.1696 130.11 85.8896 127.79C87.1796 123.63 88.7996 119.58 90.7196 115.68C92.6296 111.79 94.8496 108.04 97.3596 104.48L158.41 17.69L156.09 16Z" fill="#A29CDB"/>
<path fill-rule="evenodd" clip-rule="evenodd" d="M20 202.03L51.06 157.4C56.63 149.4 55.55 142 59.07 135.52C59.19 135.29 59.34 135.05 59.5 134.84C59.99 134.17 60.63 133.6 61.39 133.17C62.12 132.76 62.97 132.47 63.91 132.35C66.08 132.06 68.35 132.67 70.27 133.88C72.19 135.09 73.76 136.91 74.52 139.05C75.04 140.51 75.11 141.94 74.81 143.2C74.5 144.51 73.78 145.64 72.75 146.47C66.58 151.69 60.6 152.66 54.8 160.14L21.46 203.1L20 202.03Z" fill="#A29CDB"/>
<path fill-rule="evenodd" clip-rule="evenodd" d="M59.3295 150.06C65.5595 154.64 74.3195 153.3 78.8995 147.07C83.4795 140.84 82.1395 132.08 75.9095 127.5C69.6795 122.92 60.9195 124.26 56.3395 130.49C51.7595 136.72 53.0995 145.48 59.3295 150.06Z" fill="#A29CDB"/>
<path fill-rule="evenodd" clip-rule="evenodd" d="M62.8902 145.22C66.4502 147.84 71.4602 147.07 74.0702 143.51C76.6902 139.95 75.9202 134.94 72.3602 132.33C68.8002 129.71 63.7902 130.48 61.1802 134.04C58.5602 137.6 59.3302 142.61 62.8902 145.22Z" fill="#342E6B"/>
</g>
<defs>
<filter id="filter0_d_210_1794" x="0" y="0" width="178.41" height="227.1" filterUnits="userSpaceOnUse" color-interpolation-filters="sRGB">
<feFlood flood-opacity="0" result="BackgroundImageFix"/>
<feColorMatrix in="SourceAlpha" type="matrix" values="0 0 0 0 0 0 0 0 0 0 0 0 0 0 0 0 0 0 127 0" result="hardAlpha"/>
<feOffset dy="4"/>
<feGaussianBlur stdDeviation="10"/>
<feComposite in2="hardAlpha" operator="out"/>
<feColorMatrix type="matrix" values="0 0 0 0 0.081968 0 0 0 0 0.0575 0 0 0 0 0.2875 0 0 0 1 0"/>
<feBlend mode="normal" in2="BackgroundImageFix" result="effect1_dropShadow_210_1794"/>
<feBlend mode="normal" in="SourceGraphic" in2="effect1_dropShadow_210_1794" result="shape"/>
</filter>
</defs>
</svg>
