<svg width="173" height="28" viewBox="0 0 173 28" fill="none" xmlns="http://www.w3.org/2000/svg">
<path d="M153.751 0.206715V3.64137H160.827V17.4913H164.882V3.64137H172.022V0.206715H153.751ZM144.433 14.0566H139.233C136.928 14.0566 136.053 13.5478 136.053 10.8764V6.63078C136.053 3.91169 136.61 3.45055 139.233 3.45055H144.433C146.771 3.45055 147.613 4.22971 147.613 6.04244H151.668C151.668 1.27209 149.156 0.0159012 145.149 0.0159012H138.486C133.509 0.0159012 131.919 1.44701 131.919 6.50358V11.3852C131.919 16.0125 133.414 17.4913 138.089 17.4913H145.626C150.619 17.4913 151.732 16.1238 151.748 11.5124H147.677C147.677 13.5955 146.85 14.0407 144.497 14.0407L144.433 14.0566ZM110.627 17.4913H127.928V14.2315H114.666V10.2563H127.498V7.25093H114.666V3.46645H127.928V0.286221H110.627V17.4913ZM89.3515 3.64137H96.4276V17.4913H100.466V3.64137H107.622V0.206715H89.3515V3.64137ZM83.2455 6.53538C83.2455 4.00709 82.4186 3.43465 80.0653 3.43465H74.8338C72.3055 3.43465 71.6535 4.0866 71.6535 6.61488V11.2262C71.6535 13.4842 72.3691 14.1202 74.8338 14.1202H80.0653C82.6413 14.1202 83.2455 13.5478 83.2455 11.1944V6.53538ZM87.3003 6.15375V11.5919C87.3003 15.9012 85.9169 17.4913 81.1784 17.4913H73.7843C69.2366 17.4913 67.5511 15.774 67.5511 11.5919V6.15375C67.5511 1.3834 69.1412 0 73.7843 0H81.2261C85.4081 0 87.348 1.28799 87.348 6.15375H87.3003ZM51.9043 14.1043L46.323 0.206715H39.3583V17.4913H43.4926V3.72087L49.2647 17.4913H54.7824L60.5704 3.70497V17.4913H64.6093V0.206715H57.5651L51.952 14.0566L51.9043 14.1043ZM18.0507 17.4913H35.3512V14.2315H22.1055V10.2563H34.9378V7.25093H22.1055V3.46645H35.3512V0.286221H18.0507V17.4913ZM0.559448 0.206715H15.0772V3.64137H4.59834V17.4913H0.559448V0.206715Z" fill="#CCCCCC"/>
<path d="M9.09823 21.3312H6.67415L4.86902 25.5579H4.79045L2.98341 21.3312H0.559326V26.6062H1.86239V22.3814H2.03486L3.90322 26.6062H5.75434L7.6227 22.3814H7.79517V26.6062H9.09823V21.3312Z" fill="#CCCCCC"/>
<path d="M10.4795 26.6062V21.3312H16.0443V22.3276H11.7806V23.4835H15.9102V24.402H11.7806V25.6099H16.0443V26.6062H10.4795Z" fill="#CCCCCC"/>
<path d="M17.5041 25.5579C17.7405 25.3365 17.9078 25.0928 18.0062 24.8269C18.1059 24.5609 18.1557 24.2368 18.1557 23.8546V21.3312H23.6017V25.5579H24.2073V27.8679H23.0211V26.6062H18.3281V27.8679H17.1343V25.5579H17.5041ZM22.2987 25.5579V22.3814H19.4108V24.1144C19.4108 24.4038 19.3757 24.6624 19.3054 24.89C19.2352 25.1176 19.1208 25.3402 18.9624 25.5579H22.2987Z" fill="#CCCCCC"/>
<path d="M32.3453 26.6062V21.3312H30.155L26.8341 25.5579H26.654V21.3312H25.3509V26.6062H27.5891L30.8621 22.3814H31.0422V26.6062H32.3453Z" fill="#CCCCCC"/>
<path d="M34.9549 25.5579H38.3218V21.3312H39.6248V25.5579H40.2304V27.8753H39.0442V26.6062H33.6518V21.3312H34.9549V25.5579Z" fill="#CCCCCC"/>
<path d="M48.5293 26.6062V21.3312H46.3391L43.0182 25.5579H42.838V21.3312H41.535V26.6062H43.7732L47.0462 22.3814H47.2263V26.6062H48.5293Z" fill="#CCCCCC"/>
<path d="M49.8359 26.6062V21.3312H51.1389V23.3537H54.4981V21.3312H55.8089V26.6062H54.4981V24.402H51.1389V26.6062H49.8359Z" fill="#CCCCCC"/>
<path d="M61.4002 26.5988H58.9742C58.467 26.5988 58.0703 26.5419 57.7842 26.4281C57.498 26.3131 57.2936 26.1213 57.171 25.8529C57.0496 25.5845 56.9889 25.2122 56.9889 24.736V23.2386C56.9953 22.7241 57.0624 22.3301 57.1901 22.0567C57.3192 21.7821 57.5319 21.5904 57.8282 21.4815C58.1259 21.3715 58.55 21.3164 59.1007 21.3164H61.243C61.7093 21.3164 62.0951 21.3671 62.4005 21.4686C62.7058 21.5687 62.9421 21.7518 63.1095 22.0178C63.2781 22.2825 63.3624 22.6517 63.3624 23.1254H62.0115C62.0115 22.8484 61.9348 22.6523 61.7815 22.5373C61.6295 22.4222 61.3765 22.3647 61.0227 22.3647H59.3517C59.0425 22.3647 58.8158 22.3851 58.6714 22.426C58.5283 22.4655 58.4293 22.5484 58.3744 22.6746C58.3195 22.8007 58.292 23.0042 58.292 23.285V24.5931C58.292 24.8553 58.3271 25.0557 58.3974 25.1942C58.4676 25.3328 58.5762 25.4268 58.7231 25.4763C58.8713 25.5257 59.0783 25.5505 59.344 25.5505H61.015C61.2756 25.5505 61.4755 25.5307 61.6148 25.4911C61.7553 25.4515 61.8575 25.3761 61.9214 25.2647C61.9866 25.1534 62.0191 24.9901 62.0191 24.7749H63.3701C63.3675 25.2586 63.3126 25.6296 63.2053 25.8882C63.0993 26.1455 62.907 26.3285 62.6285 26.4374C62.35 26.545 61.9406 26.5988 61.4002 26.5988Z" fill="#CCCCCC"/>
<path d="M64.6268 26.6062V21.3312H65.9222V23.2999H66.6906L69.0687 21.3312H71.0233L67.8136 23.8027L71.1498 26.6062H69.2335L66.7155 24.3482H65.9222V26.6062H64.6268Z" fill="#CCCCCC"/>
<path d="M73.2458 26.6062H71.7243L74.6121 21.3312H76.5437L79.4085 26.6062H77.8774L77.178 25.2759H73.9529L73.2458 26.6062ZM74.478 24.2814H76.6529L75.6162 22.3202H75.5549L74.478 24.2814Z" fill="#CCCCCC"/>
<path d="M85.1091 22.3276V23.9381H82.4244C82.1522 23.9381 81.9542 23.8744 81.8303 23.747C81.7077 23.6196 81.6444 23.4149 81.6406 23.1329C81.6406 22.8459 81.6943 22.6399 81.8016 22.515C81.9089 22.3901 82.1037 22.3276 82.386 22.3276H85.1091ZM86.4121 21.3312H82.2768C81.8693 21.3312 81.5237 21.3844 81.2401 21.4908C80.9578 21.5972 80.7368 21.7877 80.5771 22.0623C80.4174 22.3369 80.3375 22.7117 80.3375 23.1867C80.3375 23.4464 80.3937 23.6889 80.5062 23.914C80.6186 24.1391 80.7661 24.3259 80.9488 24.4743C81.1328 24.6228 81.3295 24.7205 81.539 24.7675L79.9447 26.6062H81.6406L82.9437 24.9345H85.1091V26.6062H86.4121V21.3312Z" fill="#CCCCCC"/>
<path d="M96.8474 21.3312V26.6062H95.5443V22.3814H92.4821V24.6914C92.4821 25.968 91.9666 26.6062 90.9357 26.6062H90.3876V25.5579C90.6125 25.5579 90.7804 25.5276 90.8916 25.467C91.0027 25.4051 91.0781 25.3043 91.1177 25.1646C91.1586 25.0235 91.179 24.8176 91.179 24.5467V21.3312H96.8474Z" fill="#CCCCCC"/>
<path d="M99.2212 26.6062H97.6997L100.588 21.3312H102.519L105.384 26.6062H103.853L103.153 25.2759H99.9283L99.2212 26.6062ZM100.453 24.2814H102.628L101.592 22.3202H101.53L100.453 24.2814Z" fill="#CCCCCC"/>
<path d="M106.257 21.3312H111.368V22.3276H107.56V23.4075H110.08C110.519 23.4075 110.869 23.4557 111.132 23.5522C111.397 23.6474 111.592 23.815 111.719 24.055C111.845 24.295 111.908 24.6283 111.908 25.0551C111.908 25.4509 111.843 25.762 111.713 25.9884C111.584 26.2147 111.388 26.3743 111.125 26.4671C110.862 26.5598 110.516 26.6062 110.088 26.6062H106.257V21.3312ZM107.56 24.402V25.6099H109.814C110.045 25.6099 110.216 25.5913 110.328 25.5542C110.44 25.5171 110.514 25.4565 110.55 25.3724C110.587 25.2883 110.605 25.1627 110.605 24.9957C110.605 24.8448 110.589 24.7292 110.556 24.6487C110.524 24.5671 110.454 24.5059 110.347 24.4651C110.241 24.423 110.078 24.402 109.86 24.402H107.56Z" fill="#CCCCCC"/>
<path d="M114.505 24.6766C114.507 24.9091 114.539 25.0885 114.599 25.2147C114.659 25.3408 114.76 25.4299 114.903 25.4818C115.048 25.5325 115.255 25.5579 115.526 25.5579H117.253C117.537 25.5579 117.751 25.5332 117.893 25.4837C118.036 25.4342 118.135 25.3476 118.19 25.2239C118.245 25.099 118.272 24.9141 118.272 24.6692V23.324C118.272 23.0655 118.239 22.8694 118.172 22.7358C118.107 22.6022 118.001 22.5101 117.854 22.4593C117.709 22.4074 117.5 22.3814 117.23 22.3814H115.549C115.273 22.3814 115.062 22.4086 114.915 22.4631C114.769 22.5162 114.666 22.6096 114.604 22.7432C114.544 22.8768 114.511 23.0729 114.505 23.3314V24.6766ZM119.575 24.8046C119.575 25.146 119.543 25.4286 119.479 25.6525C119.415 25.8764 119.309 26.0589 119.161 26.1999C119.013 26.3397 118.812 26.4423 118.558 26.5079C118.303 26.5734 117.986 26.6062 117.605 26.6062H115.212C114.846 26.6062 114.537 26.5722 114.282 26.5042C114.028 26.4361 113.821 26.3298 113.661 26.185C113.502 26.0391 113.385 25.8535 113.311 25.6284C113.238 25.4033 113.202 25.1287 113.202 24.8046V23.2015C113.202 22.8354 113.237 22.5336 113.309 22.2961C113.38 22.0573 113.494 21.8675 113.65 21.7265C113.806 21.5842 114.009 21.4828 114.259 21.4222C114.51 21.3616 114.827 21.3312 115.212 21.3312H117.605C118.075 21.3312 118.452 21.3857 118.736 21.4945C119.019 21.6021 119.23 21.792 119.368 22.0641C119.506 22.3363 119.575 22.7154 119.575 23.2015V24.8046Z" fill="#CCCCCC"/>
<path d="M120.784 26.6062V21.3312H124.498C124.849 21.3312 125.144 21.3653 125.383 21.4333C125.622 21.5013 125.817 21.6077 125.967 21.7524C126.119 21.8972 126.231 22.0864 126.303 22.3202C126.376 22.5527 126.412 22.8391 126.412 23.1793C126.409 23.6246 126.343 23.9845 126.213 24.2591C126.084 24.5325 125.88 24.7322 125.601 24.8584C125.323 24.9846 124.96 25.0477 124.513 25.0477H122.087V26.6062H120.784ZM122.087 23.9993H124.262C124.478 23.9993 124.648 23.9709 124.772 23.914C124.896 23.8571 124.982 23.7699 125.032 23.6524C125.083 23.5336 125.109 23.3759 125.109 23.1793C125.109 22.9022 125.049 22.6999 124.929 22.5725C124.809 22.4451 124.586 22.3814 124.262 22.3814H122.087V23.9993Z" fill="#CCCCCC"/>
<path d="M128.6 26.6062H127.078L129.966 21.3312H131.898L134.763 26.6062H133.232L132.532 25.2759H129.307L128.6 26.6062ZM129.832 24.2814H132.007L130.97 22.3202H130.909L129.832 24.2814Z" fill="#CCCCCC"/>
<path d="M135.408 21.3312H141.287V22.3814H138.988V26.6062H137.685V22.3814H135.408V21.3312Z" fill="#CCCCCC"/>
<path d="M143.538 24.6766C143.541 24.9091 143.572 25.0885 143.632 25.2147C143.692 25.3408 143.794 25.4299 143.937 25.4818C144.081 25.5325 144.289 25.5579 144.56 25.5579H146.286C146.571 25.5579 146.785 25.5332 146.926 25.4837C147.07 25.4342 147.169 25.3476 147.223 25.2239C147.278 25.099 147.306 24.9141 147.306 24.6692V23.324C147.306 23.0655 147.273 22.8694 147.206 22.7358C147.141 22.6022 147.035 22.5101 146.888 22.4593C146.742 22.4074 146.534 22.3814 146.263 22.3814H144.583C144.307 22.3814 144.095 22.4086 143.949 22.4631C143.803 22.5162 143.699 22.6096 143.638 22.7432C143.578 22.8768 143.545 23.0729 143.538 23.3314V24.6766ZM148.609 24.8046C148.609 25.146 148.577 25.4286 148.513 25.6525C148.449 25.8764 148.343 26.0589 148.195 26.1999C148.047 26.3397 147.846 26.4423 147.591 26.5079C147.337 26.5734 147.02 26.6062 146.639 26.6062H144.246C143.88 26.6062 143.57 26.5722 143.316 26.5042C143.062 26.4361 142.855 26.3298 142.695 26.185C142.536 26.0391 142.419 25.8535 142.345 25.6284C142.272 25.4033 142.235 25.1287 142.235 24.8046V23.2015C142.235 22.8354 142.271 22.5336 142.343 22.2961C142.414 22.0573 142.528 21.8675 142.684 21.7265C142.84 21.5842 143.043 21.4828 143.293 21.4222C143.544 21.3616 143.861 21.3312 144.246 21.3312H146.639C147.109 21.3312 147.486 21.3857 147.77 21.4945C148.053 21.6021 148.264 21.792 148.402 22.0641C148.54 22.3363 148.609 22.7154 148.609 23.2015V24.8046Z" fill="#CCCCCC"/>
<path d="M149.818 26.6062V21.3312H153.531C153.883 21.3312 154.178 21.3653 154.417 21.4333C154.656 21.5013 154.85 21.6077 155.001 21.7524C155.153 21.8972 155.265 22.0864 155.337 22.3202C155.409 22.5527 155.446 22.8391 155.446 23.1793C155.443 23.6246 155.377 23.9845 155.247 24.2591C155.117 24.5325 154.914 24.7322 154.635 24.8584C154.357 24.9846 153.994 25.0477 153.547 25.0477H151.121V26.6062H149.818ZM151.121 23.9993H153.296C153.512 23.9993 153.682 23.9709 153.805 23.914C153.929 23.8571 154.016 23.7699 154.066 23.6524C154.117 23.5336 154.143 23.3759 154.143 23.1793C154.143 22.9022 154.083 22.6999 153.963 22.5725C153.843 22.4451 153.62 22.3814 153.296 22.3814H151.121V23.9993Z" fill="#CCCCCC"/>
<path d="M163.561 26.6062V21.3312H161.371L158.05 25.5579H157.869V21.3312H156.566V26.6062H158.805L162.078 22.3814H162.258V26.6062H163.561Z" fill="#CCCCCC"/>
<path d="M169.788 22.3276V23.9381H167.104C166.832 23.9381 166.633 23.8744 166.51 23.747C166.387 23.6196 166.324 23.4149 166.32 23.1329C166.32 22.8459 166.374 22.6399 166.481 22.515C166.588 22.3901 166.783 22.3276 167.065 22.3276H169.788ZM171.091 21.3312H166.956C166.549 21.3312 166.203 21.3844 165.919 21.4908C165.637 21.5972 165.416 21.7877 165.256 22.0623C165.097 22.3369 165.017 22.7117 165.017 23.1867C165.017 23.4464 165.073 23.6889 165.185 23.914C165.298 24.1391 165.445 24.3259 165.628 24.4743C165.812 24.6228 166.009 24.7205 166.218 24.7675L164.624 26.6062H166.32L167.623 24.9345H169.788V26.6062H171.091V21.3312Z" fill="#CCCCCC"/>
</svg>
