<svg width="106" height="107" viewBox="0 0 106 107" fill="none" xmlns="http://www.w3.org/2000/svg">
<path fill-rule="evenodd" clip-rule="evenodd" d="M37.8622 36.9021C37.9521 36.8988 38.0384 36.8664 38.1083 36.8098L39.0462 35.8565C39.0933 35.7884 39.115 35.706 39.1075 35.6235C39.1001 35.541 39.064 35.4638 39.0054 35.4053C38.9469 35.3467 38.8696 35.3106 38.7872 35.3031C38.7047 35.2957 38.6222 35.3174 38.5542 35.3645L37.6162 36.3178C37.5827 36.3494 37.556 36.3875 37.5378 36.4298C37.5196 36.4721 37.5101 36.5177 37.5101 36.5638C37.5101 36.6099 37.5196 36.6554 37.5378 36.6977C37.556 36.74 37.5827 36.7782 37.6162 36.8098C37.6833 36.871 37.7714 36.904 37.8622 36.9021ZM55.0985 67.6536C55.0985 67.1031 54.8798 66.575 54.4905 66.1858C54.1012 65.7965 53.5733 65.5778 53.0227 65.5778C52.4722 65.5778 51.9443 65.7965 51.555 66.1858C51.1657 66.575 50.947 67.1031 50.947 67.6536V76.0487C47.1865 76.3872 43.5987 77.784 40.5991 80.0772H65.4464C62.4468 77.784 58.859 76.3872 55.0985 76.0487V67.6536ZM42.6287 34.7955C42.2304 35.1225 41.7247 35.2895 41.21 35.2643C40.6954 35.239 40.2085 35.0232 39.8441 34.6588C39.4797 34.2944 39.2639 33.8076 39.2386 33.2929C39.2134 32.7782 39.3804 32.2725 39.7073 31.8742L39.8457 31.7204C39.8944 31.6613 39.9514 31.6096 40.0148 31.5667C42.1944 29.4279 44.867 27.8585 47.7966 26.997C50.7262 26.1355 53.8229 26.0083 56.8133 26.6267C59.8037 27.2452 62.5959 28.5902 64.9435 30.5431C67.2911 32.496 69.1219 34.9967 70.2743 37.8246C70.2804 37.8859 70.2804 37.9478 70.2743 38.0091C70.4578 38.529 70.4273 39.1006 70.1894 39.598C69.9515 40.0954 69.5258 40.4779 69.0058 40.6614C68.4859 40.8449 67.9144 40.8144 67.417 40.5765C66.9196 40.3386 66.537 39.9129 66.3535 39.3929C65.4603 37.1953 64.0409 35.2507 62.2202 33.7301C60.3995 32.2095 58.2332 31.1593 55.9116 30.6719C53.59 30.1845 51.1842 30.2748 48.9057 30.9348C46.6271 31.5949 44.5456 32.8044 42.844 34.4573L42.6287 34.6572V34.7955ZM26.1152 42.8217H79.9303C76.8326 46.4382 73.0364 49.3919 68.7694 51.5056C64.5024 53.6192 59.8525 54.8494 55.0985 55.1223V59.1815C57.4903 58.8309 59.7572 57.8903 61.6947 56.4446C62.1168 56.125 62.6451 55.9788 63.1715 56.0359C63.6979 56.093 64.1825 56.3492 64.5263 56.7519C64.8701 57.1546 65.047 57.6734 65.0208 58.2022C64.9946 58.7311 64.7673 59.2299 64.3854 59.5966C64.352 59.6403 64.3101 59.6769 64.2624 59.7043C61.0408 62.1415 57.1085 63.4541 53.0689 63.4406H46.9186C46.103 63.4406 45.3208 63.7646 44.7441 64.3413C44.1674 64.918 43.8434 65.7001 43.8434 66.5157C43.8434 67.3313 44.1674 68.1135 44.7441 68.6902C45.3208 69.2669 46.103 69.5909 46.9186 69.5909C47.2051 69.5661 47.4937 69.6013 47.766 69.694C48.0383 69.7867 48.2883 69.9349 48.5003 70.1294C48.7122 70.3238 48.8815 70.5602 48.9972 70.8235C49.113 71.0868 49.1728 71.3713 49.1728 71.6589C49.1728 71.9466 49.113 72.2311 48.9972 72.4944C48.8815 72.7577 48.7122 72.994 48.5003 73.1885C48.2883 73.3829 48.0383 73.5312 47.766 73.6239C47.4937 73.7166 47.2051 73.7517 46.9186 73.727C44.9979 73.727 43.1558 72.964 41.7977 71.6059C40.4396 70.2477 39.6766 68.4057 39.6766 66.485C39.6766 64.5643 40.4396 62.7223 41.7977 61.3641C43.1558 60.006 44.9979 59.243 46.9186 59.243H51.0546V55.03C46.3006 54.7572 41.6507 53.527 37.3837 51.4133C33.1167 49.2996 29.3205 46.3459 26.2228 42.7294L26.1152 42.8217ZM61.3103 71.805C61.3103 72.2155 61.1885 72.6169 60.9605 72.9582C60.7324 73.2996 60.4082 73.5656 60.0289 73.7227C59.6496 73.8798 59.2322 73.9209 58.8296 73.8408C58.4269 73.7608 58.0571 73.563 57.7668 73.2727C57.4765 72.9825 57.2788 72.6126 57.1987 72.2099C57.1186 71.8073 57.1597 71.39 57.3168 71.0107C57.4739 70.6314 57.74 70.3072 58.0813 70.0791C58.4227 69.851 58.824 69.7293 59.2345 69.7293C59.5064 69.7292 59.7756 69.7831 60.0266 69.8876C60.2776 69.9921 60.5054 70.1452 60.6969 70.3382C60.8884 70.5311 61.0399 70.7601 61.1425 71.0118C61.2451 71.2636 61.2969 71.5331 61.2949 71.805H61.3103Z" fill="white"/>
<path d="M53.0063 106.308C52.4584 106.308 51.9327 106.091 51.5439 105.705C51.1551 105.319 50.9346 104.795 50.9305 104.248V94.4686C50.9305 93.9181 51.1492 93.3901 51.5385 93.0008C51.9277 92.6116 52.4557 92.3929 53.0063 92.3929C53.5568 92.3929 54.0847 92.6116 54.474 93.0008C54.8633 93.3901 55.082 93.9181 55.082 94.4686V104.248C55.0779 104.795 54.8574 105.319 54.4686 105.705C54.0798 106.091 53.5541 106.308 53.0063 106.308ZM89.1239 91.3473C88.84 91.3597 88.5566 91.3127 88.2919 91.2095C88.0272 91.1063 87.7869 90.949 87.5863 90.7477L80.6672 83.8286C80.4659 83.628 80.3086 83.3877 80.2054 83.123C80.1022 82.8582 80.0552 82.5749 80.0676 82.291C80.0672 81.7441 80.2827 81.2192 80.6672 80.8303C80.8576 80.636 81.0849 80.4816 81.3357 80.3762C81.5865 80.2708 81.8559 80.2165 82.1279 80.2165C82.4 80.2165 82.6693 80.2708 82.9201 80.3762C83.171 80.4816 83.3982 80.636 83.5886 80.8303L90.5077 87.734C90.9053 88.1468 91.1259 88.6985 91.1227 89.2716C91.1187 89.8195 90.8982 90.3435 90.5094 90.7294C90.1205 91.1154 89.5949 91.332 89.047 91.332L89.1239 91.3473ZM16.8578 91.3473C16.5867 91.3494 16.3179 91.2975 16.067 91.1947C15.8161 91.0919 15.5881 90.9402 15.3964 90.7484C15.2047 90.5567 15.053 90.3288 14.9502 90.0779C14.8473 89.827 14.7955 89.5581 14.7975 89.287C14.7888 89.0035 14.8374 88.7212 14.9405 88.457C15.0435 88.1928 15.1988 87.9521 15.3972 87.7494L22.3162 80.8457C22.5066 80.6514 22.7339 80.497 22.9847 80.3916C23.2355 80.2862 23.5049 80.2319 23.7769 80.2319C24.049 80.2319 24.3183 80.2862 24.5691 80.3916C24.82 80.497 25.0472 80.6514 25.2376 80.8457C25.6264 81.233 25.8473 81.7577 25.8527 82.3064C25.8621 82.5913 25.8123 82.875 25.7064 83.1397C25.6006 83.4043 25.4409 83.6442 25.2376 83.844L18.3339 90.7631C17.9446 91.1355 17.4274 91.3446 16.8886 91.3473H16.8578ZM104.054 55.2297H94.2748C93.9882 55.2544 93.6996 55.2193 93.4273 55.1266C93.1551 55.0339 92.905 54.8856 92.693 54.6912C92.4811 54.4967 92.3119 54.2604 92.1961 53.9971C92.0803 53.7338 92.0206 53.4493 92.0206 53.1616C92.0206 52.874 92.0803 52.5895 92.1961 52.3262C92.3119 52.0629 92.4811 51.8265 92.693 51.6321C92.905 51.4376 93.1551 51.2894 93.4273 51.1967C93.6996 51.104 93.9882 51.0689 94.2748 51.0936H104.054C104.571 51.1383 105.054 51.3755 105.405 51.7584C105.756 52.1413 105.951 52.642 105.951 53.1616C105.951 53.6813 105.756 54.182 105.405 54.5649C105.054 54.9478 104.571 55.185 104.054 55.2297ZM11.6762 55.2297H1.89724C1.37955 55.185 0.897436 54.9478 0.546161 54.5649C0.194887 54.182 0 53.6813 0 53.1616C0 52.642 0.194887 52.1413 0.546161 51.7584C0.897436 51.3755 1.37955 51.1383 1.89724 51.0936H11.7223C12.0089 51.0689 12.2975 51.104 12.5698 51.1967C12.8421 51.2894 13.0921 51.4376 13.3041 51.6321C13.516 51.8265 13.6852 52.0629 13.801 52.3262C13.9168 52.5895 13.9766 52.874 13.9766 53.1616C13.9766 53.4493 13.9168 53.7338 13.801 53.9971C13.6852 54.2604 13.516 54.4967 13.3041 54.6912C13.0921 54.8856 12.8421 55.0339 12.5698 55.1266C12.2975 55.2193 12.0089 55.2544 11.7223 55.2297H11.6762ZM82.1741 26.0157C81.9029 26.0178 81.6341 25.9659 81.3832 25.8631C81.1323 25.7603 80.9043 25.6086 80.7126 25.4169C80.5209 25.2251 80.3692 24.9972 80.2664 24.7463C80.1635 24.4954 80.1116 24.2265 80.1137 23.9554C80.105 23.6719 80.1536 23.3896 80.2567 23.1254C80.3597 22.8612 80.515 22.6206 80.7133 22.4178L87.6324 15.5141C87.8228 15.3198 88.0501 15.1654 88.3009 15.06C88.5517 14.9546 88.8211 14.9003 89.0931 14.9003C89.3652 14.9003 89.6345 14.9546 89.8854 15.06C90.1362 15.1654 90.3634 15.3198 90.5538 15.5141C90.7556 15.715 90.9143 15.955 91.02 16.2194C91.1258 16.4838 91.1764 16.767 91.1689 17.0517C91.1678 17.3237 91.113 17.5928 91.0074 17.8435C90.9019 18.0942 90.7477 18.3216 90.5538 18.5124L83.6348 25.4315C83.2553 25.8113 82.7417 26.0267 82.2048 26.0311L82.1741 26.0157ZM23.7462 26.0157C23.4623 26.0281 23.179 25.9812 22.9142 25.8779C22.6495 25.7747 22.4092 25.6174 22.2086 25.4161L15.2895 18.497C15.0978 18.3055 14.946 18.0776 14.843 17.8269C14.7401 17.5761 14.688 17.3074 14.6899 17.0363C14.6771 16.6213 14.7891 16.2119 15.0114 15.8612C15.2338 15.5105 15.5562 15.2345 15.937 15.069C16.3178 14.9034 16.7395 14.8559 17.1476 14.9325C17.5557 15.0091 17.9315 15.2063 18.2263 15.4987L25.13 22.4024C25.3304 22.6044 25.4881 22.8446 25.5937 23.1088C25.6994 23.3729 25.7508 23.6556 25.745 23.94C25.741 24.4879 25.5205 25.0119 25.1316 25.3979C24.7428 25.7838 24.2172 26.0004 23.6693 26.0004L23.7462 26.0157ZM52.9601 13.9304C52.4109 13.9264 51.8852 13.7064 51.4968 13.318C51.1084 12.9296 50.8884 12.404 50.8844 11.8547V2.07569C50.8844 1.52517 51.1031 0.99721 51.4924 0.607935C51.8816 0.218661 52.4096 0 52.9601 0C53.5106 0 54.0386 0.218661 54.4279 0.607935C54.8172 0.99721 55.0358 1.52517 55.0358 2.07569V11.8547C55.0361 12.3988 54.8242 12.9215 54.4453 13.312C54.0663 13.7024 53.5501 13.9298 53.0063 13.9458L52.9601 13.9304Z" fill="white"/>
</svg>
