<svg width="31" height="30" viewBox="0 0 31 30" fill="none" xmlns="http://www.w3.org/2000/svg">
  <path fill-rule="evenodd" clip-rule="evenodd" d="M14.2833 13.9902H17.0233H19.6433C19.9133 13.9902 20.1633 14.1002 20.3533 14.2902C20.5433 14.4802 20.6533 14.7302 20.6533 15.0002C20.6533 15.5602 20.2033 16.0102 19.6433 16.0102H16.4833H13.7433H11.1233C10.8533 16.0102 10.6033 15.9002 10.4133 15.7102C10.2233 15.5202 10.1133 15.2702 10.1133 15.0002C10.1133 14.4402 10.5633 13.9902 11.1233 13.9902H14.2833Z" fill="#F88A64" />
  <path fill-rule="evenodd" clip-rule="evenodd" d="M21.0128 3.06C21.3828 3.06 21.7228 2.84 21.8728 2.49C21.9728 2.26 21.9828 2 21.8828 1.77C21.7928 1.53 21.6128 1.35 21.3828 1.25C19.4828 0.42 17.4728 0 15.3828 0C7.11281 0 0.382812 6.73 0.382812 15C0.382812 23.27 7.11281 30 15.3828 30C23.6528 30 30.3828 23.27 30.3828 15C30.3828 12.91 29.9628 10.9 29.1328 9C28.9828 8.65 28.6428 8.43 28.2728 8.43C28.1428 8.43 28.0128 8.46 27.8928 8.51C27.6628 8.61 27.4828 8.8 27.3928 9.03C27.3028 9.26 27.3028 9.52 27.4028 9.75C28.1228 11.4 28.4928 13.17 28.4928 14.99C28.4928 22.22 22.6128 28.1 15.3828 28.1C8.15281 28.1 2.27281 22.22 2.27281 14.99C2.27281 7.76 8.15281 1.88 15.3828 1.88C17.2028 1.88 18.9728 2.25 20.6328 2.97C20.7528 3.04 20.8828 3.06 21.0128 3.06Z" fill="#F88A64" />
  <path fill-rule="evenodd" clip-rule="evenodd" d="M9.75282 3.06C9.38282 3.06 9.04281 2.84 8.89281 2.49C8.79281 2.26 8.78281 2 8.88281 1.77C8.97281 1.53 9.15281 1.35 9.38281 1.25C11.2828 0.42 13.2928 0 15.3828 0C23.6528 0 30.3828 6.73 30.3828 15C30.3828 23.27 23.6528 30 15.3828 30C7.11281 30 0.382812 23.27 0.382812 15C0.382812 12.91 0.802813 10.9 1.63281 9C1.78281 8.65 2.12281 8.43 2.49281 8.43C2.62281 8.43 2.75282 8.46 2.87282 8.51C3.10282 8.61 3.28282 8.8 3.37282 9.03C3.46282 9.26 3.46282 9.52 3.36282 9.75C2.64282 11.4 2.27281 13.17 2.27281 14.99C2.27281 22.22 8.15281 28.1 15.3828 28.1C22.6128 28.1 28.4928 22.22 28.4928 14.99C28.4928 7.76 22.6128 1.88 15.3828 1.88C13.5628 1.88 11.7928 2.25 10.1328 2.97C10.0128 3.04 9.88282 3.06 9.75282 3.06Z" fill="#F88A64" />
</svg>