<svg width="30" height="30" viewBox="0 0 30 30" fill="none" xmlns="http://www.w3.org/2000/svg">
<path fill-rule="evenodd" clip-rule="evenodd" d="M13.1798 14.7L15.0698 12.81L16.8798 11C17.0698 10.81 17.3098 10.71 17.5798 10.71C17.8398 10.71 18.0898 10.81 18.2798 11C18.6598 11.39 18.6598 12.01 18.2798 12.39L16.0998 14.57L14.2098 16.46L12.3998 18.27C12.2098 18.46 11.9698 18.56 11.6998 18.56C11.4398 18.56 11.1898 18.46 10.9998 18.27C10.6198 17.88 10.6198 17.26 10.9998 16.88L13.1798 14.7Z" fill="#8C4BBB"/>
<path fill-rule="evenodd" clip-rule="evenodd" d="M16.0998 14.7L14.2098 12.81L12.3998 11C12.2098 10.81 11.9698 10.71 11.6998 10.71C11.4398 10.71 11.1898 10.81 10.9998 11C10.6198 11.39 10.6198 12.01 10.9998 12.39L13.1798 14.57L15.0698 16.46L16.8798 18.27C17.0698 18.46 17.3098 18.56 17.5798 18.56C17.8398 18.56 18.0898 18.46 18.2798 18.27C18.6598 17.88 18.6598 17.26 18.2798 16.88L16.0998 14.7Z" fill="#8C4BBB"/>
<path fill-rule="evenodd" clip-rule="evenodd" d="M20.14 2.99C20.5 2.99 20.83 2.77 20.98 2.43C21.08 2.21 21.08 1.95 20.99 1.73C20.9 1.5 20.72 1.32 20.5 1.22C18.65 0.41 16.68 0 14.64 0C6.57 0 0 6.57 0 14.64C0 22.71 6.57 29.28 14.64 29.28C22.71 29.28 29.28 22.71 29.28 14.64C29.28 12.6 28.87 10.63 28.06 8.79C27.91 8.45 27.58 8.24 27.22 8.24C27.09 8.24 26.97 8.27 26.85 8.32C26.63 8.42 26.45 8.6 26.36 8.83C26.27 9.06 26.27 9.31 26.37 9.53C27.08 11.14 27.43 12.86 27.43 14.65C27.43 21.71 21.69 27.45 14.63 27.45C7.57 27.45 1.83 21.71 1.83 14.65C1.83 7.59 7.57 1.85 14.63 1.85C16.41 1.85 18.13 2.21 19.75 2.91C19.88 2.96 20.01 2.99 20.14 2.99Z" fill="#8C4BBB"/>
<path fill-rule="evenodd" clip-rule="evenodd" d="M9.15 2.99C8.79 2.99 8.46 2.77 8.31 2.43C8.21 2.21 8.21 1.95 8.3 1.73C8.38 1.5 8.56 1.32 8.78 1.22C10.63 0.41 12.6 0 14.64 0C22.71 0 29.28 6.57 29.28 14.64C29.28 22.71 22.71 29.28 14.64 29.28C6.57 29.28 0 22.71 0 14.64C0 12.6 0.41 10.63 1.22 8.79C1.37 8.45 1.7 8.24 2.06 8.24C2.19 8.24 2.31 8.27 2.43 8.32C2.65 8.42 2.83 8.6 2.92 8.83C3.01 9.06 3.01 9.31 2.91 9.53C2.2 11.14 1.85 12.86 1.85 14.65C1.85 21.71 7.59 27.45 14.65 27.45C21.71 27.45 27.45 21.71 27.45 14.65C27.45 7.59 21.71 1.85 14.65 1.85C12.87 1.85 11.15 2.21 9.53 2.91C9.4 2.96 9.27 2.99 9.15 2.99Z" fill="#8C4BBB"/>
</svg>
