<svg width="64" height="64" viewBox="0 0 64 64" fill="none" xmlns="http://www.w3.org/2000/svg">
<rect width="64" height="64" rx="32" fill="#FF7759"/>
<g clip-path="url(#clip0_822_22725)">
<path fill-rule="evenodd" clip-rule="evenodd" d="M38.6667 37C38.6667 37.6593 38.4712 38.3037 38.1049 38.8519C37.7386 39.4001 37.218 39.8273 36.609 40.0796C35.9999 40.3319 35.3296 40.3979 34.683 40.2693C34.0364 40.1407 33.4425 39.8232 32.9763 39.357C32.5101 38.8909 32.1927 38.2969 32.0641 37.6503C31.9354 37.0037 32.0014 36.3335 32.2537 35.7244C32.506 35.1153 32.9333 34.5947 33.4814 34.2284C34.0296 33.8622 34.6741 33.6667 35.3333 33.6667C36.2174 33.6667 37.0653 34.0179 37.6904 34.643C38.3155 35.2681 38.6667 36.1159 38.6667 37ZM40.2333 21.2667L21.3834 40.1333L23.7333 42.4834L28.7333 37.4834C28.8228 38.759 29.2773 39.9821 30.0426 41.0067C30.8079 42.0312 31.8517 42.814 33.0496 43.2618C34.2474 43.7095 35.5488 43.8032 36.7985 43.5318C38.0482 43.2604 39.1935 42.6354 40.0977 41.7311C41.002 40.8268 41.6271 39.6815 41.8985 38.4318C42.1699 37.1821 42.0761 35.8808 41.6284 34.6829C41.1806 33.485 40.3978 32.4412 39.3733 31.6759C38.3487 30.9106 37.1257 30.4562 35.85 30.3667L42.5167 23.6167L40.1667 21.25L40.2333 21.2667ZM32 48.6667C35.2964 48.6667 38.5187 47.6892 41.2595 45.8578C44.0003 44.0265 46.1366 41.4235 47.398 38.3781C48.6595 35.3326 48.9895 31.9815 48.3464 28.7485C47.7033 25.5155 46.116 22.5458 43.7851 20.2149C41.4542 17.8841 38.4845 16.2967 35.2515 15.6536C32.0185 15.0105 28.6674 15.3406 25.6219 16.6021C22.5765 17.8635 19.9735 19.9997 18.1422 22.7405C16.3108 25.4813 15.3333 28.7036 15.3333 32C15.3333 36.4203 17.0893 40.6595 20.2149 43.7851C23.3405 46.9107 27.5797 48.6667 32 48.6667ZM32 12C28.0444 12 24.1776 13.173 20.8886 15.3706C17.5996 17.5682 15.0362 20.6918 13.5224 24.3463C12.0087 28.0009 11.6126 32.0222 12.3843 35.9018C13.156 39.7814 15.0608 43.3451 17.8579 46.1422C20.6549 48.9392 24.2186 50.844 28.0982 51.6157C31.9778 52.3874 35.9991 51.9914 39.6537 50.4776C43.3082 48.9639 46.4318 46.4004 48.6294 43.1114C50.827 39.8224 52 35.9556 52 32C52 26.6957 49.8929 21.6086 46.1421 17.8579C42.3914 14.1072 37.3043 12 32 12ZM23.9167 32.8C22.9769 32.3235 22.1635 31.6309 21.5432 30.7792C20.9228 29.9276 20.5132 28.9409 20.3478 27.9003C20.1825 26.8597 20.2662 25.7947 20.592 24.7927C20.9178 23.7907 21.4765 22.8802 22.2223 22.1358C22.968 21.3914 23.8796 20.8344 24.8822 20.5104C25.8849 20.1865 26.95 20.1048 27.9903 20.2721C29.0306 20.4394 30.0165 20.8508 30.867 21.4728C31.7175 22.0947 32.4085 22.9094 32.8833 23.85L30.2833 26.4333C30.1937 25.8212 29.9354 25.2461 29.5375 24.7724C29.1396 24.2987 28.6177 23.9451 28.0302 23.7512C27.4427 23.5572 26.8129 23.5306 26.2111 23.6742C25.6094 23.8179 25.0595 24.1262 24.623 24.5646C24.1865 25.0031 23.8806 25.5543 23.7396 26.1567C23.5986 26.7591 23.628 27.3888 23.8246 27.9754C24.0211 28.562 24.377 29.0823 24.8525 29.4782C25.3279 29.874 25.9041 30.1297 26.5167 30.2167L23.9167 32.8Z" fill="white"/>
</g>
<defs>
<clipPath id="clip0_822_22725">
<rect width="40" height="40" fill="white" transform="translate(12 12)"/>
</clipPath>
</defs>
</svg>
