<svg width="26" height="48" viewBox="0 0 26 48" fill="none" xmlns="http://www.w3.org/2000/svg">
<path fill-rule="evenodd" clip-rule="evenodd" d="M12.9533 45.9847C13.4927 45.9847 13.9914 45.6794 14.2764 45.1704L23.681 28.1425C23.9863 27.5827 23.9863 26.9109 23.6606 26.3613C23.3756 25.8728 22.8973 25.5878 22.368 25.5878H3.55888C3.01944 25.5878 2.55124 25.8728 2.26626 26.3613C1.94056 26.9109 1.93038 27.5827 2.2459 28.1425L11.6505 45.1704C11.9151 45.6895 12.4138 45.9847 12.9533 45.9847ZM22.3578 23.5827C23.5996 23.5827 24.7293 24.2443 25.3807 25.3435C26.0627 26.4936 26.083 27.9389 25.4316 29.1196L16.0271 46.1475C15.3858 47.3078 14.2357 48 12.9533 48C11.6708 48 10.5207 47.3078 9.87948 46.1475L0.474911 29.1094C-0.176488 27.9389 -0.156132 26.4834 0.525801 25.3333C1.1772 24.2341 2.30697 23.5725 3.5487 23.5725H22.3578V23.5827Z" fill="#F88A64"/>
<path fill-rule="evenodd" clip-rule="evenodd" d="M5.13614 9.73027C5.13614 5.41475 8.64759 1.91348 12.9529 1.91348C17.2684 1.91348 20.7697 5.42493 20.7697 9.73027C20.7697 14.0458 17.2583 17.5471 12.9529 17.5471C8.64759 17.5572 5.13614 14.0458 5.13614 9.73027ZM22.6832 9.73027C22.6832 4.36641 18.3168 0 12.9529 0C7.58906 0 3.22266 4.36641 3.22266 9.73027C3.22266 15.0941 7.58906 19.4605 12.9529 19.4605C18.3168 19.4707 22.6832 15.1043 22.6832 9.73027Z" fill="#F88A64"/>
</svg>
