<svg width="46" height="46" viewBox="0 0 46 46" fill="none" xmlns="http://www.w3.org/2000/svg">
<path d="M28.1532 14.0776C28.1532 6.31509 21.8391 0 14.0766 0C6.3141 0 0 6.31509 0 14.0776C0 21.8401 6.3141 28.1552 14.0766 28.1552C21.8391 28.1552 28.1532 21.8401 28.1532 14.0776ZM14.0766 25.7759C7.62668 25.7759 2.37733 20.5285 2.37733 14.0776C2.37733 7.62668 7.62668 2.37931 14.0766 2.37931C20.5265 2.37931 25.7759 7.62668 25.7759 14.0776C25.7759 20.5285 20.5265 25.7759 14.0766 25.7759Z" fill="#9E99D1"/>
<path d="M17.1765 16.3241C15.6973 18.2295 12.4555 18.2285 10.9764 16.325C10.5719 15.8046 9.8224 15.7114 9.30689 16.1139C8.7884 16.5164 8.69521 17.2639 9.09771 17.7834C10.2834 19.3111 12.1442 20.2241 14.0764 20.2241C16.0086 20.2241 17.8694 19.3111 19.0541 17.7814C19.4566 17.2629 19.3644 16.5154 18.8449 16.1119C18.3265 15.7104 17.579 15.8036 17.1765 16.3241Z" fill="#9E99D1"/>
<path d="M31.9223 17.8448C31.266 17.8448 30.7336 18.3772 30.7336 19.0345C30.7336 19.6918 31.266 20.2241 31.9223 20.2241C38.3722 20.2241 43.6216 25.4715 43.6216 31.9224C43.6216 38.3733 38.3722 43.6207 31.9223 43.6207C25.4724 43.6207 20.223 38.3733 20.223 31.9224C20.223 31.2651 19.6907 30.7328 19.0344 30.7328C18.3781 30.7328 17.8457 31.2651 17.8457 31.9224C17.8457 39.6849 24.1598 46 31.9223 46C39.6848 46 45.9989 39.6849 45.9989 31.9224C45.9989 24.1599 39.6848 17.8448 31.9223 17.8448Z" fill="#9E99D1"/>
<path d="M26.9437 36.1506C26.5412 36.6691 26.6334 37.4166 27.1529 37.8201C27.37 37.9886 27.6278 38.0699 27.8825 38.0699C28.2365 38.0699 28.5874 37.9113 28.8214 37.6089C30.3005 35.7055 33.5423 35.7045 35.0215 37.607C35.422 38.1264 36.1695 38.2186 36.691 37.8181C37.2094 37.4156 37.3026 36.6681 36.9001 36.1486C35.7154 34.6199 33.8546 33.7079 31.9234 33.7079C29.9912 33.7079 28.1284 34.6209 26.9437 36.1506Z" fill="#9E99D1"/>
<path d="M27.9558 30.4353C28.7771 30.4353 29.4429 29.7696 29.4429 28.9483C29.4429 28.127 28.7771 27.4612 27.9558 27.4612C27.1345 27.4612 26.4688 28.127 26.4688 28.9483C26.4688 29.7696 27.1345 30.4353 27.9558 30.4353Z" fill="#9E99D1"/>
<path d="M35.8875 30.4353C36.7087 30.4353 37.3745 29.7696 37.3745 28.9483C37.3745 28.127 36.7087 27.4612 35.8875 27.4612C35.0662 27.4612 34.4004 28.127 34.4004 28.9483C34.4004 29.7696 35.0662 30.4353 35.8875 30.4353Z" fill="#9E99D1"/>
<path d="M10.1121 12.5905C10.9334 12.5905 11.5991 11.9247 11.5991 11.1034C11.5991 10.2822 10.9334 9.61638 10.1121 9.61638C9.29078 9.61638 8.625 10.2822 8.625 11.1034C8.625 11.9247 9.29078 12.5905 10.1121 12.5905Z" fill="#9E99D1"/>
<path d="M18.0418 12.5905C18.863 12.5905 19.5288 11.9247 19.5288 11.1034C19.5288 10.2822 18.863 9.61638 18.0418 9.61638C17.2205 9.61638 16.5547 10.2822 16.5547 11.1034C16.5547 11.9247 17.2205 12.5905 18.0418 12.5905Z" fill="#9E99D1"/>
</svg>
