<svg width="40" height="42" viewBox="0 0 40 42" fill="none" xmlns="http://www.w3.org/2000/svg">
<path fill-rule="evenodd" clip-rule="evenodd" d="M33.0282 19.3817C32.2536 27.1823 27.6618 32.7331 18.4043 37.0668C8.20635 32.2905 3.65135 26.0021 3.65135 16.9659V7.74532C4.25991 7.74532 4.86846 7.74532 5.49546 7.74532C10.0198 7.77094 14.4714 6.60713 18.4043 4.37055C21.6821 6.27132 25.3422 7.41787 29.1186 7.72686L32.8069 4.03862H31.35C27.1332 4.07367 22.9961 2.8889 19.437 0.626993L18.4412 0L17.4453 0.626993C13.8863 2.8889 9.74922 4.07367 5.53236 4.03862C4.39032 4.03726 3.24999 3.95094 2.12075 3.78042L0 3.44849V16.9475C0 31.184 10.0873 37.3434 17.6851 40.755L18.4412 41.087L19.1973 40.755C26.795 37.3434 36.8824 31.1656 36.8824 16.9475V15.5459L33.0282 19.3817Z" fill="#FF7759"/>
<path fill-rule="evenodd" clip-rule="evenodd" d="M18.5345 28.6575L8.02301 20.2299L10.3282 17.3531L18.2578 23.6969L37.3814 4.5918L40 7.19198L18.5345 28.6575Z" fill="#FF7759"/>
</svg>
