<svg width="40" height="38" viewBox="0 0 40 38" fill="none" xmlns="http://www.w3.org/2000/svg">
<path fill-rule="evenodd" clip-rule="evenodd" d="M20.0502 0.0167303C15.6362 0.0181977 11.346 1.47571 7.84459 4.1633C4.34317 6.85088 1.82608 10.6185 0.683556 14.882C-0.458969 19.1455 -0.16314 23.6669 1.52517 27.7452C3.21348 31.8235 6.20002 35.2309 10.0218 37.4394C10.2121 37.5494 10.4223 37.6208 10.6402 37.6495C10.8582 37.6782 11.0797 37.6635 11.292 37.6065C11.714 37.4913 12.0741 37.2153 12.2949 36.8377L21.4875 20.9092C21.5987 20.7194 21.6714 20.5096 21.7014 20.2917C21.7313 20.0738 21.7179 19.8522 21.662 19.6394C21.6061 19.4267 21.5088 19.2271 21.3756 19.052C21.2424 18.877 21.076 18.73 20.8859 18.6194C20.6951 18.5089 20.4844 18.4373 20.2658 18.4085C20.0472 18.3798 19.8251 18.3946 19.6122 18.4521C19.3994 18.5096 19.2 18.6086 19.0256 18.7435C18.8512 18.8783 18.7052 19.0463 18.596 19.2378L10.239 33.6453C8.32368 32.2556 6.72326 30.4773 5.54239 28.4266C4.36152 26.376 3.62684 24.099 3.38632 21.7449H6.62878C7.07207 21.7449 7.49722 21.5689 7.81067 21.2555C8.12412 20.942 8.30018 20.5168 8.30018 20.0735C8.30018 19.6302 8.12412 19.2051 7.81067 18.8917C7.49722 18.5782 7.07207 18.4021 6.62878 18.4021H3.36959C3.60816 16.0479 4.34388 13.7713 5.5281 11.7226C6.71232 9.67403 8.31803 7.90017 10.239 6.5185L11.9104 9.32643C12.0149 9.52617 12.1587 9.70276 12.3332 9.84548C12.5077 9.9882 12.7093 10.0941 12.9258 10.1569C13.1423 10.2197 13.3692 10.2381 13.593 10.2109C13.8168 10.1837 14.0327 10.1116 14.2279 9.99881C14.423 9.886 14.5934 9.73488 14.7286 9.55454C14.8638 9.37419 14.9612 9.16834 15.0149 8.94939C15.0685 8.73044 15.0772 8.50291 15.0407 8.28048C15.0041 8.05805 14.9229 7.84527 14.8019 7.65504L13.1306 4.8471C15.285 3.86659 17.6246 3.35922 19.9917 3.35922C22.3587 3.35922 24.6983 3.86659 26.8527 4.8471L25.1813 7.65504C25.0708 7.8458 24.9991 8.0566 24.9704 8.27518C24.9417 8.49376 24.9565 8.71584 25.014 8.92868C25.0714 9.14152 25.1705 9.34086 25.3054 9.51526C25.4402 9.68967 25.6082 9.83565 25.7997 9.94484C26.1835 10.1627 26.6379 10.22 27.0638 10.1042C27.4896 9.98833 27.8524 9.70874 28.0729 9.32643L29.7443 6.5185C31.6683 7.89852 33.2772 9.67159 34.4644 11.7203C35.6516 13.769 36.3898 16.0466 36.6304 18.4021H33.3712C32.9279 18.4021 32.5028 18.5782 32.1893 18.8917C31.8759 19.2051 31.6998 19.6302 31.6998 20.0735C31.6998 20.5168 31.8759 20.942 32.1893 21.2555C32.5028 21.5689 32.9279 21.7449 33.3712 21.7449H36.597C36.3581 24.0949 35.6239 26.3675 34.4427 28.413C33.2615 30.4585 31.6602 32.2304 29.7443 33.6119L28.0729 30.8206C27.8524 30.4383 27.4896 30.1588 27.0638 30.0429C26.6379 29.9271 26.1835 29.9843 25.7997 30.2022C25.6082 30.3114 25.4402 30.4575 25.3054 30.6319C25.1705 30.8063 25.0714 31.0056 25.014 31.2185C24.9565 31.4313 24.9417 31.6534 24.9704 31.872C24.9991 32.0905 25.0708 32.3012 25.1813 32.492L27.6884 36.821C27.8192 37.0153 27.9833 37.1851 28.1731 37.3224C28.4327 37.5104 28.7409 37.6199 29.061 37.6377C29.381 37.6555 29.6994 37.5808 29.9782 37.4226C33.8 35.2142 36.7865 31.8068 38.4748 27.7284C40.1631 23.6501 40.459 19.1288 39.3164 14.8653C38.1739 10.6018 35.6568 6.83415 32.1554 4.14657C28.654 1.45898 24.3638 0.00146734 19.9498 0L20.0502 0.0167303Z" fill="#FF7759"/>
</svg>
