<svg width="40" height="40" viewBox="0 0 40 40" fill="none" xmlns="http://www.w3.org/2000/svg">
<path fill-rule="evenodd" clip-rule="evenodd" d="M25.6388 28.1129C25.2781 28.3643 25.0319 28.7485 24.9541 29.1812C24.8763 29.6138 24.9732 30.0598 25.2237 30.4211C25.4751 30.7817 25.8592 31.0279 26.2919 31.1057C26.7246 31.1835 27.1704 31.0866 27.5317 30.8362C29.8532 29.2205 31.5984 26.906 32.5132 24.2297C33.4281 21.5534 33.4648 18.6549 32.6181 15.9562C31.7715 13.2576 30.0856 10.8996 27.8058 9.22559C25.5261 7.55154 22.7716 6.64877 19.9432 6.64877C17.1149 6.64877 14.3603 7.55154 12.0806 9.22559C9.80084 10.8996 8.11495 13.2576 7.26828 15.9562C6.4216 18.6549 6.45833 21.5534 7.37317 24.2297C8.28802 26.906 10.0332 29.2205 12.3547 30.8362C12.5328 30.9742 12.7371 31.0746 12.9552 31.1311C13.1733 31.1877 13.4006 31.1993 13.6234 31.1652C13.8461 31.1311 14.0595 31.052 14.2507 30.9328C14.4419 30.8135 14.6069 30.6566 14.7355 30.4715C14.8641 30.2865 14.9537 30.0773 14.9988 29.8566C15.044 29.6358 15.0437 29.4081 14.9981 29.1874C14.9524 28.9668 14.8624 28.7578 14.7334 28.5731C14.6044 28.3883 14.4391 28.2318 14.2476 28.1129C12.5075 26.9005 11.1997 25.1644 10.5145 23.1573C9.82923 21.1502 9.80235 18.9769 10.4377 16.9535C11.0731 14.9301 12.3377 13.1622 14.0473 11.9071C15.7569 10.652 17.8224 9.97527 19.9432 9.97527C22.0641 9.97527 24.1295 10.652 25.8392 11.9071C27.5488 13.1622 28.8133 14.9301 29.4487 16.9535C30.0841 18.9769 30.0572 21.1502 29.372 23.1573C28.6867 25.1644 27.3789 26.9005 25.6388 28.1129ZM19.9432 13.2845C21.5458 13.3038 23.0874 13.9017 24.2837 14.9683C25.48 16.0348 26.2502 17.498 26.4525 19.0878C26.6548 20.6777 26.2754 22.2871 25.3843 23.6192C24.4932 24.9513 23.1505 25.9163 21.6037 26.3362V38.1923C21.6037 38.6327 21.4288 39.055 21.1174 39.3664C20.806 39.6778 20.3836 39.8528 19.9432 39.8528C19.5028 39.8528 19.0805 39.6778 18.769 39.3664C18.4576 39.055 18.2827 38.6327 18.2827 38.1923V26.4524C16.736 26.0325 15.3932 25.0675 14.5021 23.7354C13.611 22.4033 13.2316 20.794 13.4339 19.2041C13.6362 17.6142 14.4065 16.1511 15.6028 15.0845C16.7991 14.018 18.3407 13.42 19.9432 13.4008V13.2845ZM19.9432 23.2476C19.2864 23.2476 18.6443 23.0528 18.0982 22.6879C17.552 22.323 17.1263 21.8044 16.875 21.1975C16.6236 20.5907 16.5579 19.9229 16.686 19.2787C16.8141 18.6345 17.1305 18.0427 17.5949 17.5782C18.0594 17.1138 18.6511 16.7976 19.2953 16.6694C19.9395 16.5413 20.6073 16.607 21.2141 16.8583C21.8209 17.1097 22.3396 17.5354 22.7046 18.0815C23.0695 18.6277 23.2643 19.2698 23.2643 19.9266C23.2643 20.8074 22.9143 21.6521 22.2915 22.2749C21.6687 22.8977 20.824 23.2476 19.9432 23.2476ZM19.9432 0.000428153C24.6121 -0.0301653 29.1434 1.57965 32.7464 4.54901C36.3495 7.51836 38.7955 11.6587 39.6574 16.2474C40.5194 20.8361 39.7427 25.5817 37.4628 29.6562C35.1829 33.7306 31.5447 36.8752 27.1831 38.541C26.9803 38.6219 26.7635 38.6619 26.5453 38.659C26.327 38.656 26.1114 38.6101 25.9109 38.5237C25.7104 38.4373 25.5289 38.3123 25.3767 38.1557C25.2246 37.9991 25.1049 37.8139 25.0244 37.611C24.944 37.4072 24.9046 37.1896 24.9087 36.9705C24.9128 36.7514 24.9602 36.5354 25.0482 36.3347C25.1362 36.1341 25.263 35.9527 25.4213 35.8013C25.5797 35.6499 25.7665 35.5313 25.9709 35.4524C29.5772 34.0452 32.5786 31.4223 34.4562 28.0369C36.3338 24.6516 36.9695 20.7165 36.2536 16.9122C35.5377 13.1078 33.515 9.67312 30.5353 7.20184C27.5556 4.73056 23.8061 3.37801 19.9349 3.37801C16.0638 3.37801 12.3142 4.73056 9.33449 7.20184C6.35478 9.67312 4.33212 13.1078 3.61619 16.9122C2.90025 20.7165 3.53605 24.6516 5.41363 28.0369C7.29121 31.4223 10.2926 34.0452 13.8989 35.4524C14.2574 35.594 14.5554 35.856 14.7419 36.1933C14.9284 36.5307 14.9918 36.9223 14.9211 37.3012C14.8504 37.6801 14.6501 38.0226 14.3546 38.27C14.059 38.5174 13.6866 38.6543 13.3012 38.6572C13.0909 38.6577 12.8823 38.6183 12.6867 38.541C8.35709 36.8526 4.75376 33.704 2.50005 29.6399C0.246336 25.5757 -0.515974 20.8517 0.344973 16.2849C1.20592 11.7181 3.63596 7.59588 7.21476 4.6313C10.7936 1.66673 15.296 0.0462251 19.9432 0.0501909V0.000428153Z" fill="#FF7759"/>
</svg>
