<svg width="30" height="30" viewBox="0 0 30 30" fill="none" xmlns="http://www.w3.org/2000/svg">
  <path fill-rule="evenodd" clip-rule="evenodd" d="M20.14 2.99C20.5 2.99 20.83 2.77 20.98 2.43C21.08 2.21 21.08 1.95 20.99 1.73C20.9 1.5 20.72 1.32 20.5 1.22C18.65 0.41 16.68 0 14.64 0C6.57 0 0 6.57 0 14.64C0 22.71 6.57 29.28 14.64 29.28C22.71 29.28 29.28 22.71 29.28 14.64C29.28 12.6 28.87 10.63 28.06 8.79C27.91 8.45 27.58 8.24 27.22 8.24C27.09 8.24 26.97 8.27 26.85 8.32C26.63 8.42 26.45 8.6 26.36 8.83C26.27 9.06 26.27 9.31 26.37 9.53C27.08 11.14 27.43 12.86 27.43 14.65C27.43 21.71 21.69 27.45 14.63 27.45C7.57 27.45 1.83 21.71 1.83 14.65C1.83 7.59 7.57 1.85 14.63 1.85C16.41 1.85 18.13 2.21 19.75 2.91C19.88 2.96 20.01 2.99 20.14 2.99Z" fill="#9E99D1" />
  <path fill-rule="evenodd" clip-rule="evenodd" d="M9.15 2.99C8.79 2.99 8.46 2.77 8.31 2.43C8.21 2.21 8.21 1.95 8.3 1.73C8.38 1.5 8.56 1.32 8.78 1.22C10.63 0.41 12.6 0 14.64 0C22.71 0 29.28 6.57 29.28 14.64C29.28 22.71 22.71 29.28 14.64 29.28C6.57 29.28 0 22.71 0 14.64C0 12.6 0.41 10.63 1.22 8.79C1.37 8.45 1.7 8.24 2.06 8.24C2.19 8.24 2.31 8.27 2.43 8.32C2.65 8.42 2.83 8.6 2.92 8.83C3.01 9.06 3.01 9.31 2.91 9.53C2.2 11.14 1.85 12.86 1.85 14.65C1.85 21.71 7.59 27.45 14.65 27.45C21.71 27.45 27.45 21.71 27.45 14.65C27.45 7.59 21.71 1.85 14.65 1.85C12.87 1.85 11.15 2.21 9.53 2.91C9.4 2.96 9.27 2.99 9.15 2.99Z" fill="#9E99D1" />
  <path fill-rule="evenodd" clip-rule="evenodd" d="M16.1236 20.2024C16.1236 20.8856 15.5673 21.4322 14.8938 21.4322C14.2106 21.4322 13.6641 20.8759 13.6641 20.2024C13.6641 19.5192 14.2204 18.9727 14.8938 18.9727C15.5673 18.9727 16.1236 19.5192 16.1236 20.2024Z" fill="#9E99D1" />
  <path fill-rule="evenodd" clip-rule="evenodd" d="M14.8841 17.1966C14.2595 17.1966 13.7422 16.6891 13.7422 16.0547V8.67616C13.7422 8.05152 14.2497 7.53424 14.8841 7.53424C15.5087 7.53424 16.026 8.04176 16.026 8.67616V16.0547C16.026 16.6794 15.5185 17.1966 14.8841 17.1966Z" fill="#9E99D1" />
</svg>