<svg width="40" height="40" viewBox="0 0 40 40" fill="none" xmlns="http://www.w3.org/2000/svg">
<rect width="40" height="40" rx="20" fill="#273BAC"/>
<path fill-rule="evenodd" clip-rule="evenodd" d="M23.5 32H16.5C15.8378 31.9974 15.2034 31.7331 14.7351 31.2648C14.2669 30.7966 14.0026 30.1622 14 29.5V26H10.5C9.83777 25.9974 9.20341 25.7331 8.73514 25.2649C8.26687 24.7966 8.00263 24.1622 8 23.5V16.5C8 15.837 8.26338 15.2011 8.73222 14.7322C9.20106 14.2634 9.83696 14 10.5 14H14V10.5C14 9.83696 14.2634 9.20108 14.7322 8.73224C15.2011 8.2634 15.837 8 16.5 8H23.5C24.163 8 24.7989 8.2634 25.2678 8.73224C25.7366 9.20108 26 9.83696 26 10.5V14H29.5C30.163 14 30.7989 14.2634 31.2678 14.7322C31.7366 15.2011 32 15.837 32 16.5V23.5C31.9974 24.1622 31.7331 24.7966 31.2648 25.2649C30.7966 25.7331 30.1622 25.9974 29.5 26H26V29.5C25.9974 30.1622 25.7331 30.7966 25.2648 31.2648C24.7966 31.7331 24.1622 31.9974 23.5 32ZM10.5 16C10.3674 16 10.2402 16.0527 10.1464 16.1465C10.0527 16.2402 10 16.3674 10 16.5V23.5C10 23.6326 10.0527 23.7598 10.1464 23.8535C10.2402 23.9473 10.3674 24 10.5 24H16V29.5C16 29.6326 16.0527 29.7598 16.1464 29.8536C16.2402 29.9473 16.3674 30 16.5 30H23.5C23.6318 29.9974 23.7575 29.9439 23.8507 29.8507C23.9439 29.7575 23.9974 29.6318 24 29.5V24H29.5C29.6318 23.9974 29.7575 23.9439 29.8507 23.8507C29.9439 23.7575 29.9974 23.6318 30 23.5V16.5C30 16.3674 29.9473 16.2402 29.8535 16.1465C29.7598 16.0527 29.6326 16 29.5 16H24V10.5C24 10.3674 23.9473 10.2402 23.8535 10.1465C23.7598 10.0527 23.6326 10 23.5 10H16.5C16.3674 10 16.2402 10.0527 16.1464 10.1465C16.0527 10.2402 16 10.3674 16 10.5V16H10.5Z" fill="#F5F6F8"/>
</svg>
