<svg width="42" height="42" viewBox="0 0 42 42" fill="none" xmlns="http://www.w3.org/2000/svg">
<path fill-rule="evenodd" clip-rule="evenodd" d="M15.75 42H26.25V31.5H15.75V42ZM19.25 35H22.75V38.5H19.25V35ZM15.75 10.5H26.25V0H15.75V10.5ZM19.25 3.5H22.75V7H19.25V3.5ZM0 26.25H10.5V15.75H0V26.25ZM3.5 19.25H7V22.75H3.5V19.25ZM0 10.5H10.5V0H0V10.5ZM3.5 3.5H7V7H3.5V3.5ZM15.75 26.25H26.25V15.75H15.75V26.25ZM19.25 19.25H22.75V22.75H19.25V19.25ZM31.5 26.25H42V15.75H31.5V26.25ZM35 19.25H38.5V22.75H35V19.25ZM31.5 0V10.5H42V0H31.5ZM38.5 7H35V3.5H38.5V7ZM0 42H10.5V31.5H0V42ZM3.5 35H7V38.5H3.5V35ZM31.5 42H42V31.5H31.5V42ZM35 35H38.5V38.5H35V35Z" fill="#273BAC"/>
</svg>
