<svg width="172" height="40" viewBox="0 0 172 40" fill="none" xmlns="http://www.w3.org/2000/svg">
<rect width="172" height="40" rx="20" fill="#0098B0"/>
<path fill-rule="evenodd" clip-rule="evenodd" d="M82.8498 10.2865L79.0019 29.7127H83.4089L87.2568 10.2865H82.8498Z" fill="white"/>
<path fill-rule="evenodd" clip-rule="evenodd" d="M34.9132 10.2865L31 29.7127H35.3977L39.3202 10.2865H34.9132Z" fill="white"/>
<path fill-rule="evenodd" clip-rule="evenodd" d="M65.594 29.7127H69.6469L81.4517 10.2865H77.0447L68.8084 23.7777L66.2182 10.2865H61.8206L65.594 29.7127Z" fill="white"/>
<path fill-rule="evenodd" clip-rule="evenodd" d="M94.943 29.7127L98.0083 14.3394H102.974L103.748 10.2865H89.3527L88.5794 14.3394H93.6106L90.536 29.7127H94.943Z" fill="white"/>
<path fill-rule="evenodd" clip-rule="evenodd" d="M43.5776 29.7127L46.1585 16.8551L52.8761 29.7127H56.7147L60.5627 10.2865H56.37L53.7798 23.1441L47.0063 10.2865H43.2329L39.3197 29.7127H43.5776Z" fill="white"/>
<path fill-rule="evenodd" clip-rule="evenodd" d="M114.221 10.2863H106.115L102.276 29.7125H106.674L109.748 14.3393H113.596C113.979 14.3212 114.361 14.3795 114.721 14.5107C115.081 14.6418 115.411 14.8433 115.693 15.1033C115.903 15.3249 116.062 15.5899 116.159 15.8797C116.255 16.1695 116.287 16.4769 116.252 16.7804C116.047 18.737 114.5 19.65 112.525 19.65H109.264L113.382 29.7125H117.789L115.059 23.0508C116.594 22.8568 118.007 22.1125 119.035 20.9559C120.063 19.7994 120.637 18.3091 120.649 16.7617C120.864 12.9231 118.069 10.2397 114.221 10.2397V10.2863Z" fill="white"/>
<path fill-rule="evenodd" clip-rule="evenodd" d="M121.487 19.9947C121.649 17.276 122.85 14.7236 124.84 12.8647C126.831 11.0059 129.459 9.98281 132.183 10.0068C133.486 9.95673 134.785 10.1848 135.993 10.6757C137.202 11.1667 138.292 11.9093 139.191 12.8541C140.09 13.799 140.777 14.9244 141.208 16.1556C141.638 17.3868 141.801 18.6955 141.686 19.9947C141.526 22.715 140.327 25.2698 138.336 27.1306C136.345 28.9914 133.715 30.0158 130.99 29.9919C129.685 30.0467 128.383 29.8216 127.172 29.3317C125.961 28.8417 124.868 28.0984 123.968 27.1515C123.068 26.2046 122.381 25.076 121.953 23.8416C121.525 22.6072 121.366 21.2956 121.487 19.9947ZM137.633 19.9947C137.701 19.2154 137.605 18.4304 137.35 17.6907C137.096 16.951 136.689 16.2729 136.156 15.7004C135.623 15.1278 134.975 14.6735 134.256 14.3668C133.536 14.0601 132.76 13.9079 131.978 13.9199C130.336 13.909 128.755 14.5366 127.567 15.6701C126.38 16.8036 125.68 18.3544 125.614 19.9947C125.545 20.7748 125.64 21.5607 125.894 22.3016C126.148 23.0424 126.555 23.7216 127.088 24.2952C127.621 24.8688 128.269 25.324 128.99 25.6313C129.71 25.9385 130.487 26.091 131.27 26.0788C132.908 26.0735 134.482 25.4393 135.666 24.3071C136.85 23.1749 137.555 21.6312 137.633 19.9947Z" fill="white"/>
</svg>
