<svg width="100%" height="100%" viewBox="0 0 351 72" fill="none" xmlns="http://www.w3.org/2000/svg">
<path d="M75 57.3495H75.9534L80.2539 51.7543V57.3495H81.2694V50.083H80.316L76.0259 55.6886V50.083H75V57.3495Z" fill="#273BAC"/>
<path d="M88.733 50.083V53.2076H84.5672V50.083H83.531V57.3495H84.5672V54.1107H88.733V57.3495H89.7693V50.083H88.733Z" fill="#273BAC"/>
<path d="M97.2336 50.083V53.2076H93.0679V50.083H92.0316V57.3495H93.0679V54.1107H97.2336V57.3495H98.2699V50.083H97.2336Z" fill="#273BAC"/>
<path d="M103.796 57.4325C106.004 57.4325 107.641 55.8547 107.641 53.7163C107.641 51.5779 106.004 50 103.796 50C101.568 50 99.9312 51.5882 99.9312 53.7163C99.9312 55.8443 101.568 57.4325 103.796 57.4325ZM103.796 56.5087C102.17 56.5087 100.967 55.3253 100.967 53.7163C100.967 52.1073 102.17 50.9239 103.796 50.9239C105.403 50.9239 106.605 52.1073 106.605 53.7163C106.605 55.3253 105.403 56.5087 103.796 56.5087Z" fill="#273BAC"/>
<path d="M113.834 53.5813C114.539 53.3114 114.964 52.7509 114.964 51.9516C114.964 50.737 114.01 50.083 112.435 50.083H109.316V57.3495H112.632C114.415 57.3495 115.327 56.6125 115.327 55.3668C115.327 54.4221 114.808 53.8201 113.834 53.5813ZM110.342 50.9031H112.363C113.358 50.9031 113.917 51.3183 113.917 52.0969C113.917 52.8754 113.358 53.2803 112.363 53.2803H110.342V50.9031ZM112.612 56.5294H110.342V54.0692H112.612C113.7 54.0692 114.28 54.4429 114.28 55.2837C114.28 56.1349 113.7 56.5294 112.612 56.5294Z" fill="#273BAC"/>
<path d="M122.571 57.3495H123.659L120.364 50.083H119.338L116.053 57.3495H117.12L117.918 55.5329H121.773L122.571 57.3495ZM118.281 54.7024L119.845 51.1419L121.41 54.7024H118.281Z" fill="#273BAC"/>
<path d="M131.004 56.4464V50.083H129.978V56.4464H125.937V50.083H124.911V57.3495H131.159V59H132.123V56.4464H131.004Z" fill="#273BAC"/>
<path d="M133.502 57.3495H134.456L138.756 51.7543V57.3495H139.772V50.083H138.819L134.528 55.6886V50.083H133.502V57.3495Z" fill="#273BAC"/>
<path d="M145.298 57.4325C147.505 57.4325 149.142 55.8547 149.142 53.7163C149.142 51.5779 147.505 50 145.298 50C143.07 50 141.432 51.5882 141.432 53.7163C141.432 55.8443 143.07 57.4325 145.298 57.4325ZM145.298 56.5087C143.671 56.5087 142.469 55.3253 142.469 53.7163C142.469 52.1073 143.671 50.9239 145.298 50.9239C146.904 50.9239 148.106 52.1073 148.106 53.7163C148.106 55.3253 146.904 56.5087 145.298 56.5087Z" fill="#273BAC"/>
<path d="M156.019 50.083V53.2076H151.854V50.083H150.817V57.3495H151.854V54.1107H156.019V57.3495H157.056V50.083H156.019Z" fill="#273BAC"/>
<path d="M164.52 50.083V53.2076H160.354V50.083H159.318V57.3495H160.354V54.1107H164.52V57.3495H165.556V50.083H164.52Z" fill="#273BAC"/>
<path d="M173.332 57.3495H174.42L171.124 50.083H170.098L166.813 57.3495H167.881L168.679 55.5329H172.534L173.332 57.3495ZM169.041 54.7024L170.606 51.1419L172.171 54.7024H169.041Z" fill="#273BAC"/>
<path d="M177.732 50.083C175.949 50.083 174.799 51.0381 174.799 52.699C174.799 53.872 175.379 54.7024 176.405 55.045L174.799 57.3495H175.897L177.348 55.2215C177.442 55.2318 177.535 55.2318 177.628 55.2318H179.628V57.3495H180.644V50.083H177.732ZM175.846 52.6886C175.846 51.5675 176.54 50.9862 177.773 50.9862H179.628V54.3599H177.711C176.478 54.3599 175.846 53.7578 175.846 52.6886Z" fill="#273BAC"/>
<path d="M193.41 57.3495L193.4 50.083H192.55L189.566 55.1903L186.54 50.083H185.69V57.3495H186.685V52.0865L189.307 56.4671H189.783L192.405 52.0554L192.416 57.3495H193.41Z" fill="#273BAC"/>
<path d="M196.705 56.4464V54.1003H200.342V53.218H196.705V50.9862H200.787V50.083H195.668V57.3495H200.933V56.4464H196.705Z" fill="#273BAC"/>
<path d="M208.404 56.4464V50.083H203.306L203.233 52.4187C203.161 54.6298 202.923 56.3841 201.928 56.4464H201.575L201.565 58.9377H202.529L202.539 57.3495H208.508V58.9377H209.472V56.4464H208.404ZM204.145 52.5121L204.197 50.9862H207.378V56.4464H203.285C203.907 55.8858 204.083 54.2872 204.145 52.5121Z" fill="#273BAC"/>
<path d="M210.888 57.3495H211.842L216.142 51.7543V57.3495H217.158V50.083H216.204L211.914 55.6886V50.083H210.888V57.3495Z" fill="#273BAC"/>
<path d="M225.513 56.4464V50.083H224.487V56.4464H220.445V50.083H219.419V57.3495H225.668V59H226.632V56.4464H225.513Z" fill="#273BAC"/>
<path d="M228.011 57.3495H228.964L233.265 51.7543V57.3495H234.281V50.083H233.327L229.037 55.6886V50.083H228.011V57.3495Z" fill="#273BAC"/>
<path d="M241.744 50.083V53.2076H237.578V50.083H236.542V57.3495H237.578V54.1107H241.744V57.3495H242.78V50.083H241.744Z" fill="#273BAC"/>
<path d="M248.286 57.4325C249.416 57.4325 250.39 57.0381 251.053 56.2907L250.379 55.6367C249.82 56.2284 249.136 56.5087 248.338 56.5087C246.701 56.5087 245.488 55.3253 245.488 53.7163C245.488 52.1073 246.701 50.9239 248.338 50.9239C249.136 50.9239 249.82 51.1938 250.379 51.7855L251.053 51.1315C250.39 50.3841 249.416 50 248.297 50C246.089 50 244.452 51.5675 244.452 53.7163C244.452 55.8651 246.089 57.4325 248.286 57.4325Z" fill="#273BAC"/>
<path d="M257.362 57.3495H258.543L255.828 53.6021L258.419 50.083H257.31L255.03 53.2388H253.496V50.083H252.481V57.3495H253.496V54.1522H255.009L257.362 57.3495Z" fill="#273BAC"/>
<path d="M265.017 57.3495H266.105L262.81 50.083H261.784L258.499 57.3495H259.566L260.364 55.5329H264.219L265.017 57.3495ZM260.727 54.7024L262.291 51.1419L263.856 54.7024H260.727Z" fill="#273BAC"/>
<path d="M269.417 50.083C267.635 50.083 266.484 51.0381 266.484 52.699C266.484 53.872 267.065 54.7024 268.09 55.045L266.484 57.3495H267.583L269.033 55.2215C269.127 55.2318 269.22 55.2318 269.313 55.2318H271.313V57.3495H272.329V50.083H269.417ZM267.531 52.6886C267.531 51.5675 268.225 50.9862 269.458 50.9862H271.313V54.3599H269.396C268.163 54.3599 267.531 53.7578 267.531 52.6886Z" fill="#273BAC"/>
<path d="M282.36 50.083H276.381V50.9862H278.857V57.3495H279.873V50.9862H282.36V50.083Z" fill="#273BAC"/>
<path d="M284.656 56.4464V54.1003H288.293V53.218H284.656V50.9862H288.738V50.083H283.619V57.3495H288.884V56.4464H284.656Z" fill="#273BAC"/>
<path d="M289.653 50.083L292.119 53.6125L289.477 57.3495H290.668L292.741 54.4533L294.824 57.3495H296.046L293.394 53.5709L295.85 50.083H294.637L292.741 52.7405L290.844 50.083H289.653Z" fill="#273BAC"/>
<path d="M302.311 50.083V53.2076H298.145V50.083H297.109V57.3495H298.145V54.1107H302.311V57.3495H303.347V50.083H302.311Z" fill="#273BAC"/>
<path d="M308.874 57.4325C311.081 57.4325 312.718 55.8547 312.718 53.7163C312.718 51.5779 311.081 50 308.874 50C306.646 50 305.009 51.5882 305.009 53.7163C305.009 55.8443 306.646 57.4325 308.874 57.4325ZM308.874 56.5087C307.247 56.5087 306.045 55.3253 306.045 53.7163C306.045 52.1073 307.247 50.9239 308.874 50.9239C310.48 50.9239 311.682 52.1073 311.682 53.7163C311.682 55.3253 310.48 56.5087 308.874 56.5087Z" fill="#273BAC"/>
<path d="M315.01 50.083L314.896 53.1453C314.813 55.3979 314.502 56.4671 313.6 56.4671C313.487 56.4671 313.393 56.4567 313.269 56.4256L313.196 57.3495C313.445 57.4118 313.642 57.4325 313.849 57.4325C315.279 57.4325 315.725 56 315.818 53.1142L315.891 50.9862H319.103V57.3495H320.119V50.083H315.01Z" fill="#273BAC"/>
<path d="M325.642 57.4325C327.85 57.4325 329.487 55.8547 329.487 53.7163C329.487 51.5779 327.85 50 325.642 50C323.414 50 321.777 51.5882 321.777 53.7163C321.777 55.8443 323.414 57.4325 325.642 57.4325ZM325.642 56.5087C324.015 56.5087 322.813 55.3253 322.813 53.7163C322.813 52.1073 324.015 50.9239 325.642 50.9239C327.249 50.9239 328.451 52.1073 328.451 53.7163C328.451 55.3253 327.249 56.5087 325.642 56.5087Z" fill="#273BAC"/>
<path d="M335.919 50.083H331.162V57.3495H332.188L332.178 50.9862H335.908L335.919 50.083Z" fill="#273BAC"/>
<path d="M337.153 57.3495H338.106L342.407 51.7543V57.3495H343.422V50.083H342.469L338.179 55.6886V50.083H337.153V57.3495Z" fill="#273BAC"/>
<path d="M348.088 50.083C346.306 50.083 345.155 51.0381 345.155 52.699C345.155 53.872 345.736 54.7024 346.762 55.045L345.155 57.3495H346.254L347.705 55.2215C347.798 55.2318 347.891 55.2318 347.984 55.2318H349.984V57.3495H351V50.083H348.088ZM346.202 52.6886C346.202 51.5675 346.896 50.9862 348.13 50.9862H349.984V54.3599H348.067C346.834 54.3599 346.202 53.7578 346.202 52.6886Z" fill="#273BAC"/>
<path d="M57.6356 5.91915C57.2072 5.58168 56.7066 5.34199 56.1706 5.2177C55.6345 5.09342 55.0767 5.0877 54.5381 5.20096C50.5978 6.00513 46.5301 6.01537 42.5856 5.23107C38.641 4.44676 34.9031 2.88449 31.6019 0.640464C30.9846 0.223457 30.2513 0 29.5 0C28.7487 0 28.0154 0.223457 27.3981 0.640464C24.0969 2.88449 20.359 4.44676 16.4144 5.23107C12.4699 6.01537 8.40222 6.00513 4.46189 5.20096C3.92329 5.0877 3.36547 5.09342 2.82944 5.2177C2.29341 5.34199 1.79279 5.58168 1.36439 5.91915C0.936569 6.25712 0.591942 6.68415 0.355836 7.16885C0.119731 7.65356 -0.00185183 8.18361 2.13192e-05 8.72008V35.4726C-0.003257 40.6211 1.25662 45.6959 3.67474 50.2743C6.09286 54.8528 9.59924 58.8023 13.9019 61.7942L27.3613 71.1307C27.9858 71.5637 28.7334 71.7964 29.5 71.7964C30.2666 71.7964 31.0142 71.5637 31.6387 71.1307L45.0981 61.7942C49.4008 58.8023 52.9071 54.8528 55.3253 50.2743C57.7434 45.6959 59.0033 40.6211 59 35.4726V8.72008C59.0019 8.18361 58.8803 7.65356 58.6442 7.16885C58.4081 6.68415 58.0634 6.25712 57.6356 5.91915ZM51.625 35.4726C51.6278 39.4756 50.6489 43.4214 48.7696 46.9816C46.8903 50.5418 44.165 53.6135 40.8206 55.941L29.5 63.8051L18.1794 55.941C14.835 53.6135 12.1097 50.5418 10.2304 46.9816C8.35115 43.4214 7.37219 39.4756 7.37502 35.4726V12.8497C15.1056 13.494 22.8479 11.7473 29.5 7.85826C36.1521 11.7473 43.8944 13.494 51.625 12.8497V35.4726Z" fill="#273BAC"/>
<rect x="27" y="18" width="5" height="30" rx="2.5" fill="#273BAC"/>
<rect x="37" y="28" width="5" height="20" rx="2.5" fill="#273BAC"/>
<rect x="17" y="34" width="5" height="14" rx="2.5" fill="#273BAC"/>
<path d="M80.7549 35.076V28.3744H94.1994V23.1621H80.7549V16.8742H95.9782V11.4964H74.0947V40.4538H96.516V35.076H80.7549Z" fill="#273BAC"/>
<path d="M122.624 11.4964L113.689 32.1802L104.878 11.4964H97.6384L110.131 40.4538H116.75L129.285 11.4964H122.624Z" fill="#273BAC"/>
<path d="M145.362 40.9502C154.463 40.9502 161.206 34.6209 161.206 25.9751C161.206 17.3293 154.463 11 145.362 11C136.22 11 129.519 17.3706 129.519 25.9751C129.519 34.5796 136.22 40.9502 145.362 40.9502ZM145.362 35.2414C140.192 35.2414 136.303 31.477 136.303 25.9751C136.303 20.4732 140.192 16.7087 145.362 16.7087C150.533 16.7087 154.422 20.4732 154.422 25.9751C154.422 31.477 150.533 35.2414 145.362 35.2414Z" fill="#273BAC"/>
<path d="M165.122 31.3943H176.829V26.2233H165.122V31.3943Z" fill="#273BAC"/>
<path d="M191.311 40.9502C199.584 40.9502 203.597 36.8134 203.597 31.9734C203.597 21.3419 186.76 25.0236 186.76 19.6872C186.76 17.867 188.291 16.3778 192.262 16.3778C194.827 16.3778 197.599 17.1224 200.287 18.653L202.356 13.5648C199.667 11.8687 195.944 11 192.303 11C184.071 11 180.1 15.0954 180.1 20.0181C180.1 30.7737 196.937 27.0507 196.937 32.4698C196.937 34.2486 195.323 35.5724 191.352 35.5724C187.877 35.5724 184.237 34.3314 181.796 32.5525L179.521 37.5994C182.086 39.5851 186.719 40.9502 191.311 40.9502Z" fill="#273BAC"/>
<path d="M222.034 40.9502C227.081 40.9502 231.259 39.13 233.989 35.7792L229.687 31.8079C227.743 34.0832 225.302 35.2414 222.406 35.2414C216.987 35.2414 213.14 31.4356 213.14 25.9751C213.14 20.5146 216.987 16.7087 222.406 16.7087C225.302 16.7087 227.743 17.867 229.687 20.1009L233.989 16.1296C231.259 12.8202 227.081 11 222.076 11C213.057 11 206.356 17.2465 206.356 25.9751C206.356 34.7037 213.057 40.9502 222.034 40.9502Z" fill="#273BAC"/>
<path d="M264.163 40.4538L257.668 31.146C261.433 29.5327 263.625 26.3474 263.625 22.0038C263.625 15.5091 258.785 11.4964 251.049 11.4964H238.515V40.4538H245.217V32.3871H251.38L256.965 40.4538H264.163ZM256.841 22.0038C256.841 25.1477 254.772 27.0507 250.677 27.0507H245.217V16.9569H250.677C254.772 16.9569 256.841 18.8185 256.841 22.0038Z" fill="#273BAC"/>
<path d="M275.595 35.076V28.3744H289.039V23.1621H275.595V16.8742H290.818V11.4964H268.935V40.4538H291.356V35.076H275.595Z" fill="#273BAC"/>
<path d="M303.348 35.076V28.3744H316.793V23.1621H303.348V16.8742H318.572V11.4964H296.688V40.4538H319.11V35.076H303.348Z" fill="#273BAC"/>
<path d="M344.381 11.4964V29.0777L329.985 11.4964H324.442V40.4538H331.061V22.8725L345.498 40.4538H351V11.4964H344.381Z" fill="#273BAC"/>
</svg>
