<svg width="68" height="57" viewBox="0 0 68 57" fill="none" xmlns="http://www.w3.org/2000/svg">
<path d="M62.8501 0.463307L2.53569 23.3108C-0.762561 24.2617 -0.657462 27.5199 1.77994 28.3157L16.8948 33.0354L22.6755 50.7628C23.3812 52.7047 23.9517 53.4354 25.1529 53.4504C26.3541 53.4655 26.8997 53.005 28.2109 51.8489C29.7425 50.4075 32.0798 48.1402 35.7734 44.5517L51.4889 56.1631C54.3817 57.7597 56.4938 56.9339 57.1945 53.4805L67.0292 4.70248C68.1052 0.468313 65.6178 -0.792929 62.8501 0.463307ZM19.2671 31.9243L53.621 10.3681C55.3176 9.23695 55.8482 10.5032 55.0824 11.369L26.5543 37.0193L25.0878 49.8219L19.2671 31.9243Z" fill="white"/>
</svg>
