<svg width="957" height="406" viewBox="0 0 957 406" fill="none" xmlns="http://www.w3.org/2000/svg">
<circle cx="202.862" cy="202.862" r="200.862" stroke="#FF7759" stroke-width="4"/>
<path d="M202.297 3.39062L202.297 40.6856" stroke="#FF7759" stroke-width="20"/>
<path d="M202.297 364.92L202.297 402.215" stroke="#FF7759" stroke-width="20"/>
<path d="M402.215 202.297L364.921 202.297" stroke="#FF7759" stroke-width="20"/>
<path d="M40.6854 202.297L3.39046 202.297" stroke="#FF7759" stroke-width="20"/>
<path d="M202.297 3.39062V401.204" stroke="#FF7759" stroke-width="4"/>
<path d="M212.07 72.3296L191.834 72.3296" stroke="#FF7759" stroke-width="4"/>
<path d="M212.07 162.742L191.834 162.742" stroke="#FF7759" stroke-width="4"/>
<path d="M212.07 117.536L191.834 117.536" stroke="#FF7759" stroke-width="4"/>
<path d="M212.07 237.332L191.834 237.332" stroke="#FF7759" stroke-width="4"/>
<path d="M212.07 327.744L191.834 327.744" stroke="#FF7759" stroke-width="4"/>
<path d="M212.07 282.538L191.834 282.538" stroke="#FF7759" stroke-width="4"/>
<path d="M330.003 211.834L330.003 191.599" stroke="#FF7759" stroke-width="4"/>
<path d="M239.591 211.834L239.591 191.599" stroke="#FF7759" stroke-width="4"/>
<path d="M284.798 211.834L284.798 191.599" stroke="#FF7759" stroke-width="4"/>
<path d="M165.001 211.834L165.001 191.599" stroke="#FF7759" stroke-width="4"/>
<path d="M74.5888 211.834L74.5888 191.599" stroke="#FF7759" stroke-width="4"/>
<path d="M119.795 211.834L119.795 191.599" stroke="#FF7759" stroke-width="4"/>
<path d="M401.204 202.297L3.39082 202.297" stroke="#FF7759" stroke-width="4"/>
<path d="M505.282 198.083L505.282 191" stroke="white" stroke-width="3"/>
<path d="M478.36 198.083L478.36 191" stroke="white" stroke-width="3"/>
<path d="M491.821 198.083L491.821 191" stroke="white" stroke-width="3"/>
<path d="M545.653 198.083L545.653 191" stroke="white" stroke-width="3"/>
<path d="M518.73 198.083L518.73 191" stroke="white" stroke-width="3"/>
<path d="M532.192 198.083L532.192 191" stroke="white" stroke-width="3"/>
<path d="M586.025 198.083L586.025 191" stroke="white" stroke-width="3"/>
<path d="M559.102 198.083L559.102 191" stroke="white" stroke-width="3"/>
<path d="M572.564 198.083L572.564 191" stroke="white" stroke-width="3"/>
<path d="M612.946 198.083L612.946 191" stroke="white" stroke-width="3"/>
<path d="M586.023 198.083L586.023 191" stroke="white" stroke-width="3"/>
<path d="M599.485 198.083L599.485 191" stroke="white" stroke-width="3"/>
<path d="M653.317 198.083L653.317 191" stroke="white" stroke-width="3"/>
<path d="M626.394 198.083L626.394 191" stroke="white" stroke-width="3"/>
<path d="M639.855 198.083L639.855 191" stroke="white" stroke-width="3"/>
<path d="M693.689 198.083L693.689 191" stroke="white" stroke-width="3"/>
<path d="M666.766 198.083L666.766 191" stroke="white" stroke-width="3"/>
<path d="M680.227 198.083L680.227 191" stroke="white" stroke-width="3"/>
<path d="M733.591 198.083L733.591 191" stroke="white" stroke-width="3"/>
<path d="M706.668 198.083L706.668 191" stroke="white" stroke-width="3"/>
<path d="M720.129 198.083L720.129 191" stroke="white" stroke-width="3"/>
<path d="M773.963 198.083L773.963 191" stroke="white" stroke-width="3"/>
<path d="M747.04 198.083L747.04 191" stroke="white" stroke-width="3"/>
<path d="M760.502 198.083L760.502 191" stroke="white" stroke-width="3"/>
<path d="M814.334 198.083L814.334 191" stroke="white" stroke-width="3"/>
<path d="M787.411 198.083L787.411 191" stroke="white" stroke-width="3"/>
<path d="M800.873 198.083L800.873 191" stroke="white" stroke-width="3"/>
<path d="M841.257 198.083L841.257 191" stroke="white" stroke-width="3"/>
<path d="M814.334 198.083L814.334 191" stroke="white" stroke-width="3"/>
<path d="M827.796 198.083L827.796 191" stroke="white" stroke-width="3"/>
<path d="M881.626 198.083L881.626 191" stroke="white" stroke-width="3"/>
<path d="M854.703 198.083L854.703 191" stroke="white" stroke-width="3"/>
<path d="M868.164 198.083L868.164 191" stroke="white" stroke-width="3"/>
<path d="M921.999 198.083L921.999 191" stroke="white" stroke-width="3"/>
<path d="M895.076 198.083L895.076 191" stroke="white" stroke-width="3"/>
<path d="M908.537 198.083L908.537 191" stroke="white" stroke-width="3"/>
<path d="M849.584 187.703C849.199 188.37 848.236 188.37 847.852 187.703L833.373 162.626C832.989 161.96 833.47 161.126 834.239 161.126L863.196 161.126C863.966 161.126 864.447 161.96 864.062 162.626L849.584 187.703Z" fill="#FF7759"/>
<path d="M957 202L442 202" stroke="#FF7759" stroke-width="3"/>
</svg>
