<svg width="40" height="49" viewBox="0 0 40 49" fill="none" xmlns="http://www.w3.org/2000/svg">
<path fill-rule="evenodd" clip-rule="evenodd" d="M34.6465 14.42L37.6465 11.42L34.8265 8.65999L31.6465 11.86C27.4751 8.87201 22.3148 7.60157 17.233 8.31148C12.1512 9.02138 7.53663 11.6573 4.34376 15.674C1.15088 19.6908 -0.37607 24.7811 0.0787796 29.892C0.533629 35.003 2.93545 39.7436 6.78748 43.1333C10.6395 46.5231 15.647 48.3027 20.7743 48.1041C25.9016 47.9054 30.7564 45.7437 34.3346 42.0661C37.9128 38.3884 39.9407 33.4761 39.9987 28.3453C40.0568 23.2145 38.1406 18.2576 34.6465 14.5V14.42ZM20.0065 43.9999C16.842 43.9999 13.7485 43.0616 11.1174 41.3035C8.48618 39.5454 6.43543 37.0465 5.22443 34.1229C4.01343 31.1992 3.69658 27.9822 4.31394 24.8785C4.9313 21.7748 6.45514 18.9239 8.69278 16.6863C10.9304 14.4486 13.7813 12.9248 16.885 12.3074C19.9887 11.69 23.2058 12.0069 26.1294 13.2179C29.053 14.4289 31.5519 16.4797 33.31 19.1108C35.0681 21.742 36.0065 24.8355 36.0065 27.9999C36.0065 32.2434 34.3208 36.3131 31.3202 39.3136C28.3196 42.3142 24.2499 43.9999 20.0065 43.9999ZM18.0065 3.99999H22.0065V5.99999H26.0065V3.99999C26.0065 2.93913 25.585 1.92171 24.8349 1.17157C24.0848 0.421424 23.0673 0 22.0065 0H18.0065C16.9456 0 15.9282 0.421424 15.1781 1.17157C14.4279 1.92171 14.0065 2.93913 14.0065 3.99999V5.99999H18.0065V3.99999ZM18.0065 27.9999V18H22.0065V27.9999H18.0065Z" fill="#FF7759"/>
</svg>
