<svg width="230" height="40" viewBox="0 0 230 40" fill="none" xmlns="http://www.w3.org/2000/svg">
<rect width="230" height="40" rx="20" fill="#33945D"/>
<path d="M175.39 8.18539V11.2657H181.736V23.687H185.372V11.2657H191.775V8.18539H175.39ZM167.033 20.6066H162.369C160.302 20.6066 159.517 20.1503 159.517 17.7545V13.9468C159.517 11.5082 160.016 11.0946 162.369 11.0946H167.033C169.129 11.0946 169.885 11.7934 169.885 13.4191H173.521C173.521 9.14087 171.268 8.01426 167.674 8.01426H161.699C157.235 8.01426 155.809 9.29774 155.809 13.8327V18.2108C155.809 22.3607 157.15 23.687 161.343 23.687H168.102C172.58 23.687 173.578 22.4606 173.593 18.3249H169.942C169.942 20.1931 169.2 20.5924 167.09 20.5924L167.033 20.6066ZM136.714 23.687H152.23V20.7635H140.336V17.1983H151.845V14.503H140.336V11.1089H152.23V8.2567H136.714V23.687ZM117.633 11.2657H123.979V23.687H127.601V11.2657H134.019V8.18539H117.633V11.2657ZM112.157 13.8612C112.157 11.5937 111.415 11.0804 109.305 11.0804H104.613C102.345 11.0804 101.761 11.6651 101.761 13.9325V18.0682C101.761 20.0933 102.402 20.6637 104.613 20.6637H109.305C111.615 20.6637 112.157 20.1503 112.157 18.0397V13.8612ZM115.793 13.519V18.3962C115.793 22.2609 114.553 23.687 110.303 23.687H103.672C99.5929 23.687 98.0812 22.1468 98.0812 18.3962V13.519C98.0812 9.2407 99.5073 8 103.672 8H110.346C114.096 8 115.836 9.15513 115.836 13.519H115.793ZM84.0485 20.6494L79.0429 8.18539H72.7966V23.687H76.5045V11.3371L81.6812 23.687H86.6297L91.8207 11.3228V23.687H95.443V8.18539H89.1254L84.0913 20.6066L84.0485 20.6494ZM53.687 23.687H69.2029V20.7635H57.3235V17.1983H68.8321V14.503H57.3235V11.1089H69.2029V8.2567H53.687V23.687ZM38 8.18539H51.0202V11.2657H41.6223V23.687H38V8.18539Z" fill="white"/>
<path d="M45.6581 27.1309H43.4841L41.8651 30.9215H41.7947L40.174 27.1309H38V31.8617H39.1686V28.0727H39.3233L40.999 31.8617H42.6591L44.3348 28.0727H44.4894V31.8617H45.6581V27.1309Z" fill="white"/>
<path d="M46.8969 31.8617V27.1309H51.8877V28.0245H48.0638V29.0611H51.7674V29.8848H48.0638V30.9681H51.8877V31.8617H46.8969Z" fill="white"/>
<path d="M53.1969 30.9215C53.4089 30.723 53.559 30.5044 53.6472 30.2659C53.7366 30.0274 53.7812 29.7367 53.7812 29.3939V27.1309H58.6655V30.9215H59.2086V32.9933H58.1448V31.8617H53.9359V32.9933H52.8652V30.9215H53.1969ZM57.4969 30.9215V28.0727H54.9069V29.6269C54.9069 29.8865 54.8754 30.1184 54.8124 30.3225C54.7494 30.5266 54.6468 30.7263 54.5048 30.9215H57.4969Z" fill="white"/>
<path d="M66.5071 31.8617V27.1309H64.5428L61.5644 30.9215H61.4029V27.1309H60.2342V31.8617H62.2416L65.1769 28.0727H65.3385V31.8617H66.5071Z" fill="white"/>
<path d="M68.8475 30.9215H71.8671V27.1309H73.0358V30.9215H73.5788V32.9999H72.515V31.8617H67.6789V27.1309H68.8475V30.9215Z" fill="white"/>
<path d="M81.0218 31.8617V27.1309H79.0574L76.0791 30.9215H75.9175V27.1309H74.7489V31.8617H76.7562L79.6916 28.0727H79.8531V31.8617H81.0218Z" fill="white"/>
<path d="M82.1935 31.8617V27.1309H83.3622V28.9447H86.3749V27.1309H87.5504V31.8617H86.3749V29.8848H83.3622V31.8617H82.1935Z" fill="white"/>
<path d="M92.5649 31.8551H90.3892C89.9343 31.8551 89.5786 31.804 89.3219 31.702C89.0653 31.5988 88.882 31.4268 88.772 31.1861C88.6631 30.9454 88.6087 30.6115 88.6087 30.1844V28.8415C88.6144 28.38 88.6746 28.0267 88.7892 27.7815C88.9049 27.5352 89.0956 27.3633 89.3615 27.2657C89.6284 27.1669 90.0088 27.1176 90.5026 27.1176H92.424C92.8422 27.1176 93.1882 27.163 93.462 27.254C93.7359 27.3439 93.9478 27.508 94.0979 27.7466C94.2492 27.984 94.3248 28.3151 94.3248 28.74H93.1132C93.1132 28.4915 93.0444 28.3157 92.9069 28.2125C92.7706 28.1093 92.5437 28.0577 92.2264 28.0577H90.7277C90.4505 28.0577 90.2471 28.076 90.1176 28.1126C89.9893 28.1481 89.9005 28.2225 89.8513 28.3356C89.802 28.4488 89.7774 28.6313 89.7774 28.8831V30.0562C89.7774 30.2914 89.8089 30.4711 89.8719 30.5954C89.9349 30.7196 90.0323 30.8039 90.164 30.8483C90.297 30.8927 90.4826 30.9149 90.7209 30.9149H92.2195C92.4532 30.9149 92.6325 30.8971 92.7574 30.8616C92.8834 30.8261 92.9751 30.7585 93.0324 30.6586C93.0908 30.5588 93.12 30.4123 93.12 30.2193H94.3317C94.3294 30.6531 94.2801 30.9859 94.1839 31.2177C94.0888 31.4485 93.9163 31.6127 93.6666 31.7103C93.4168 31.8068 93.0496 31.8551 92.5649 31.8551Z" fill="white"/>
<path d="M95.4587 31.8617V27.1309H96.6205V28.8964H97.3097L99.4424 27.1309H101.195L98.3168 29.3474L101.309 31.8617H99.5902L97.332 29.8366H96.6205V31.8617H95.4587Z" fill="white"/>
<path d="M103.189 31.8617H101.824L104.414 27.1309H106.146L108.716 31.8617H107.343L106.715 30.6686H103.823L103.189 31.8617ZM104.294 29.7767H106.244L105.315 28.0178H105.26L104.294 29.7767Z" fill="white"/>
<path d="M113.828 28.0245V29.4688H111.42C111.176 29.4688 110.999 29.4117 110.888 29.2974C110.778 29.1832 110.721 28.9996 110.718 28.7466C110.718 28.4893 110.766 28.3046 110.862 28.1925C110.958 28.0805 111.133 28.0245 111.386 28.0245H113.828ZM114.997 27.1309H111.288C110.923 27.1309 110.613 27.1786 110.358 27.274C110.105 27.3694 109.907 27.5402 109.764 27.7865C109.62 28.0328 109.549 28.3689 109.549 28.7949C109.549 29.0279 109.599 29.2453 109.7 29.4472C109.801 29.6491 109.933 29.8166 110.097 29.9497C110.262 30.0829 110.439 30.1705 110.626 30.2127L109.197 31.8617H110.718L111.886 30.3624H113.828V31.8617H114.997V27.1309Z" fill="white"/>
<path d="M124.356 27.1309V31.8617H123.187V28.0727H120.441V30.1444C120.441 31.2893 119.978 31.8617 119.054 31.8617H118.562V30.9215C118.764 30.9215 118.915 30.8944 119.014 30.84C119.114 30.7845 119.182 30.6941 119.217 30.5688C119.254 30.4423 119.272 30.2576 119.272 30.0146V27.1309H124.356Z" fill="white"/>
<path d="M126.485 31.8617H125.12L127.71 27.1309H129.442L132.012 31.8617H130.639L130.011 30.6686H127.119L126.485 31.8617ZM127.59 29.7767H129.54L128.611 28.0178H128.556L127.59 29.7767Z" fill="white"/>
<path d="M132.795 27.1309H137.379V28.0245H133.964V28.9929H136.224C136.617 28.9929 136.931 29.0362 137.167 29.1227C137.404 29.2081 137.58 29.3585 137.693 29.5737C137.806 29.7889 137.863 30.0879 137.863 30.4706C137.863 30.8256 137.805 31.1046 137.688 31.3076C137.572 31.5106 137.396 31.6537 137.16 31.7369C136.924 31.8201 136.614 31.8617 136.23 31.8617H132.795V27.1309ZM133.964 29.8848V30.9681H135.985C136.192 30.9681 136.346 30.9515 136.445 30.9182C136.546 30.8849 136.613 30.8306 136.645 30.7551C136.678 30.6797 136.695 30.5671 136.695 30.4173C136.695 30.282 136.68 30.1783 136.65 30.1062C136.621 30.0329 136.559 29.978 136.463 29.9414C136.367 29.9037 136.222 29.8848 136.026 29.8848H133.964Z" fill="white"/>
<path d="M140.192 30.1311C140.194 30.3397 140.222 30.5005 140.276 30.6137C140.33 30.7268 140.421 30.8067 140.549 30.8533C140.678 30.8988 140.865 30.9215 141.108 30.9215H142.656C142.912 30.9215 143.103 30.8993 143.23 30.855C143.358 30.8106 143.447 30.7329 143.496 30.622C143.546 30.51 143.57 30.3441 143.57 30.1245V28.918C143.57 28.6862 143.541 28.5103 143.481 28.3905C143.423 28.2707 143.327 28.1881 143.196 28.1426C143.065 28.096 142.878 28.0727 142.635 28.0727H141.128C140.881 28.0727 140.691 28.0971 140.559 28.1459C140.429 28.1936 140.336 28.2774 140.281 28.3972C140.227 28.517 140.197 28.6928 140.192 28.9247V30.1311ZM144.739 30.2459C144.739 30.5521 144.71 30.8056 144.653 31.0064C144.596 31.2072 144.501 31.3708 144.368 31.4973C144.235 31.6226 144.054 31.7147 143.826 31.7735C143.598 31.8323 143.314 31.8617 142.972 31.8617H140.826C140.498 31.8617 140.22 31.8312 139.992 31.7702C139.764 31.7092 139.579 31.6138 139.435 31.484C139.292 31.3531 139.187 31.1867 139.121 30.9848C139.056 30.7829 139.023 30.5366 139.023 30.2459V28.8082C139.023 28.4798 139.055 28.2092 139.119 27.9962C139.183 27.7821 139.285 27.6118 139.425 27.4853C139.565 27.3577 139.747 27.2668 139.972 27.2124C140.196 27.158 140.481 27.1309 140.826 27.1309H142.972C143.394 27.1309 143.732 27.1797 143.986 27.2773C144.241 27.3738 144.43 27.5441 144.553 27.7882C144.677 28.0322 144.739 28.3722 144.739 28.8082V30.2459Z" fill="white"/>
<path d="M145.823 31.8617V27.1309H149.154C149.469 27.1309 149.733 27.1614 149.948 27.2224C150.162 27.2834 150.337 27.3788 150.472 27.5086C150.608 27.6384 150.708 27.8081 150.773 28.0178C150.838 28.2264 150.871 28.4832 150.871 28.7882C150.868 29.1876 150.809 29.5104 150.692 29.7567C150.576 30.0019 150.393 30.181 150.144 30.2942C149.894 30.4073 149.568 30.4639 149.167 30.4639H146.992V31.8617H145.823ZM146.992 29.5237H148.942C149.136 29.5237 149.288 29.4982 149.399 29.4472C149.511 29.3962 149.589 29.318 149.633 29.2126C149.679 29.1061 149.702 28.9646 149.702 28.7882C149.702 28.5397 149.648 28.3584 149.54 28.2441C149.433 28.1298 149.233 28.0727 148.942 28.0727H146.992V29.5237Z" fill="white"/>
<path d="M152.833 31.8617H151.468L154.058 27.1309H155.791L158.36 31.8617H156.987L156.359 30.6686H153.467L152.833 31.8617ZM153.938 29.7767H155.889L154.959 28.0178H154.904L153.938 29.7767Z" fill="white"/>
<path d="M158.939 27.1309H164.211V28.0727H162.149V31.8617H160.98V28.0727H158.939V27.1309Z" fill="white"/>
<path d="M166.23 30.1311C166.233 30.3397 166.261 30.5005 166.315 30.6137C166.368 30.7268 166.46 30.8067 166.588 30.8533C166.717 30.8988 166.904 30.9215 167.146 30.9215H168.695C168.95 30.9215 169.142 30.8993 169.269 30.855C169.397 30.8106 169.486 30.7329 169.535 30.622C169.585 30.51 169.609 30.3441 169.609 30.1245V28.918C169.609 28.6862 169.579 28.5103 169.52 28.3905C169.461 28.2707 169.366 28.1881 169.235 28.1426C169.104 28.096 168.917 28.0727 168.674 28.0727H167.167C166.92 28.0727 166.73 28.0971 166.598 28.1459C166.468 28.1936 166.375 28.2774 166.32 28.3972C166.266 28.517 166.236 28.6928 166.23 28.9247V30.1311ZM170.778 30.2459C170.778 30.5521 170.749 30.8056 170.692 31.0064C170.635 31.2072 170.54 31.3708 170.407 31.4973C170.274 31.6226 170.093 31.7147 169.865 31.7735C169.637 31.8323 169.353 31.8617 169.011 31.8617H166.865C166.537 31.8617 166.259 31.8312 166.031 31.7702C165.803 31.7092 165.617 31.6138 165.474 31.484C165.331 31.3531 165.226 31.1867 165.16 30.9848C165.094 30.7829 165.062 30.5366 165.062 30.2459V28.8082C165.062 28.4798 165.094 28.2092 165.158 27.9962C165.222 27.7821 165.324 27.6118 165.464 27.4853C165.604 27.3577 165.786 27.2668 166.01 27.2124C166.235 27.158 166.52 27.1309 166.865 27.1309H169.011C169.433 27.1309 169.771 27.1797 170.025 27.2773C170.279 27.3738 170.468 27.5441 170.592 27.7882C170.716 28.0322 170.778 28.3722 170.778 28.8082V30.2459Z" fill="white"/>
<path d="M171.862 31.8617V27.1309H175.193C175.508 27.1309 175.772 27.1614 175.987 27.2224C176.201 27.2834 176.376 27.3788 176.511 27.5086C176.647 27.6384 176.747 27.8081 176.812 28.0178C176.877 28.2264 176.909 28.4832 176.909 28.7882C176.907 29.1876 176.848 29.5104 176.731 29.7567C176.615 30.0019 176.432 30.181 176.183 30.2942C175.933 30.4073 175.607 30.4639 175.206 30.4639H173.031V31.8617H171.862ZM173.031 29.5237H174.981C175.175 29.5237 175.327 29.4982 175.438 29.4472C175.549 29.3962 175.627 29.318 175.672 29.2126C175.718 29.1061 175.741 28.9646 175.741 28.7882C175.741 28.5397 175.687 28.3584 175.579 28.2441C175.472 28.1298 175.272 28.0727 174.981 28.0727H173.031V29.5237Z" fill="white"/>
<path d="M184.187 31.8617V27.1309H182.223L179.245 30.9215H179.083V27.1309H177.915V31.8617H179.922L182.857 28.0727H183.019V31.8617H184.187Z" fill="white"/>
<path d="M189.773 28.0245V29.4688H187.365C187.121 29.4688 186.943 29.4117 186.832 29.2974C186.722 29.1832 186.665 28.9996 186.662 28.7466C186.662 28.4893 186.71 28.3046 186.806 28.1925C186.902 28.0805 187.077 28.0245 187.33 28.0245H189.773ZM190.941 27.1309H187.232C186.867 27.1309 186.557 27.1786 186.303 27.274C186.049 27.3694 185.851 27.5402 185.708 27.7865C185.565 28.0328 185.493 28.3689 185.493 28.7949C185.493 29.0279 185.544 29.2453 185.644 29.4472C185.745 29.6491 185.878 29.8166 186.041 29.9497C186.206 30.0829 186.383 30.1705 186.571 30.2127L185.141 31.8617H186.662L187.831 30.3624H189.773V31.8617H190.941V27.1309Z" fill="white"/>
</svg>
