<svg width="321" height="153" viewBox="0 0 321 153" fill="none" xmlns="http://www.w3.org/2000/svg">
  <path d="M12.4699 110.53C5.93554 110.53 0.641113 115.824 0.641113 122.358V141.112C0.641113 147.646 5.93554 152.94 12.4699 152.94C19.0043 152.94 24.2987 147.646 24.2987 141.112V122.358C24.2987 115.824 19.0043 110.53 12.4699 110.53ZM12.4699 129.373C8.65164 129.373 5.56159 126.284 5.56159 122.466C5.56159 118.648 8.65164 115.558 12.4699 115.558C16.2882 115.558 19.3783 118.648 19.3783 122.466C19.3783 126.284 16.2882 129.373 12.4699 129.373Z" fill="#262472" />
  <path d="M309.115 110.53C302.581 110.53 297.287 115.824 297.287 122.358V141.112C297.287 147.646 302.581 152.94 309.115 152.94C315.65 152.94 320.944 147.646 320.944 141.112V122.358C320.944 115.824 315.65 110.53 309.115 110.53ZM309.115 129.373C305.297 129.373 302.207 126.284 302.207 122.466C302.207 118.648 305.297 115.558 309.115 115.558C312.934 115.558 316.024 118.648 316.024 122.466C316.034 126.284 312.934 129.373 309.115 129.373Z" fill="#262472" />
  <path d="M309.126 125.398C308.585 125.398 308.043 125.231 307.581 124.886C269.447 96.9704 172.258 25.9653 159.878 17.6702C147.724 26.1031 60.6615 89.6495 14.0153 123.755C12.8443 124.591 11.2107 124.355 10.3545 123.184C9.49834 122.023 9.75421 120.38 10.9154 119.524C16.7216 115.292 151.277 17.8867 156.394 14.4722C160.419 11.7859 160.596 12.9766 164.759 15.8498C187.502 31.515 252.452 78.0875 310.671 120.675C311.832 121.521 312.088 123.164 311.232 124.335C310.72 125.024 309.923 125.398 309.126 125.398Z" fill="#262472" />
  <circle cx="159.496" cy="15.1279" r="15.1279" fill="#262472" />
</svg>
  