<svg width="144" height="133" viewBox="0 0 144 133" fill="none" xmlns="http://www.w3.org/2000/svg">
  <path d="M132.993 132.832H11.6241C5.60148 132.832 0.700684 127.932 0.700684 121.91V11.4858C0.700684 5.46376 5.60148 0.563477 11.6241 0.563477H132.993C139.015 0.563477 143.916 5.46376 143.916 11.4858V121.91C143.916 127.932 139.015 132.832 132.993 132.832ZM11.6241 3.68274C7.32365 3.68274 3.82025 7.18575 3.82025 11.4858V121.91C3.82025 126.21 7.32365 129.713 11.6241 129.713H132.993C137.293 129.713 140.796 126.21 140.796 121.91V11.4858C140.796 7.18575 137.293 3.68274 132.993 3.68274H11.6241Z" fill="white" />
  <path d="M25.51 44.6439C21.5835 40.7177 20.688 31.3501 21.2489 30.7892C21.8394 30.1988 22.1838 30.435 22.4101 30.6514C23.7387 31.9798 30.9029 39.1433 30.9029 39.1433C31.9559 40.1962 33.678 40.1962 34.731 39.1433L37.4963 36.3783L38.2049 35.6698L40.9702 32.9048C42.0232 31.8519 42.0232 30.1299 40.9702 29.0771C40.9702 29.0771 33.806 21.9136 32.4774 20.5852C32.2609 20.3687 32.0149 20.0243 32.6152 19.4241C33.1761 18.8632 42.5447 19.7685 46.4713 23.6848C50.9883 28.2013 51.9035 34.9515 49.2169 40.3832L68.1017 59.1775L66.537 60.742C65.2183 62.0606 64.9821 64.0581 65.9269 65.6325C66.0154 65.8981 65.9269 66.0753 65.9269 66.0753C65.8973 66.1245 65.858 66.1638 65.8284 66.213C65.7399 66.2622 65.6316 66.3114 65.5037 66.3213C64.4704 66.4 63.319 66.5476 62.1577 66.8526L42.466 47.2514C37.0043 50.105 30.1058 49.2391 25.51 44.6439ZM98.5201 89.4747L86.3075 77.3125L84.7034 78.9164C83.9456 79.6741 82.932 80.0972 81.8594 80.0972C81.1508 80.0972 80.4718 79.9102 79.8616 79.5658C79.7731 79.5363 79.6943 79.5166 79.6058 79.5166C79.4582 79.5166 79.3696 79.5658 79.3696 79.5658C79.3106 79.6052 79.2515 79.6544 79.1924 79.7036C79.1531 79.7725 79.1334 79.861 79.1236 79.9594C79.0448 80.973 78.8972 82.1045 78.602 83.246L91.6413 96.2249C88.7972 101.696 89.6731 108.594 94.259 113.179C98.1855 117.105 107.554 118.001 108.115 117.44C108.705 116.849 108.469 116.505 108.253 116.279C106.924 114.95 99.7601 107.787 99.7601 107.787C98.7071 106.734 98.7071 105.012 99.7601 103.959L102.525 101.194L103.234 100.486L105.999 97.7206C107.052 96.6677 108.774 96.6677 109.827 97.7206C109.827 97.7206 116.992 104.884 118.32 106.212C118.537 106.429 118.881 106.675 119.481 106.075C120.042 105.514 119.137 96.1462 115.22 92.22C110.703 87.7035 103.942 86.7884 98.5201 89.4747ZM120.377 27.3059C120.219 27.1484 120.052 26.9811 119.895 26.8237C119.895 26.8237 119.314 26.2432 118.665 25.5937C118.507 25.4363 118.34 25.269 118.182 25.1116C117.385 24.3145 116.588 24.6589 116.588 24.6589C116.588 24.6589 108.932 29.5887 107.603 30.4546C106.275 31.3304 105.842 31.6354 105.478 32.275C105.212 33.3082 105.271 36.4964 105.271 36.4964L80.4521 61.3127L76.0434 56.9044C75.5415 56.4026 74.7247 56.4026 74.2228 56.9044L68.4363 62.6903C67.9836 63.143 67.9442 63.8514 68.3083 64.3533C68.9382 65.6522 68.6233 66.9412 68.1411 67.6398C67.9935 67.8563 67.836 68.0531 67.6785 68.2204C67.1373 68.6829 66.4386 68.9977 65.6808 69.0568C63.7126 69.2044 61.213 69.5881 59.4712 71.3298C57.7293 73.0715 37.27 93.5287 34.0126 96.7858C30.7553 100.043 30.4502 100.348 31.2867 102.542C31.7886 103.733 33.0974 105.406 34.4653 106.941L34.3964 107.009C34.3964 107.009 35.2231 107.875 36.404 109.017C37.5455 110.198 38.4116 111.024 38.4116 111.024L38.4804 110.955C40.0156 112.323 41.6787 113.632 42.8793 114.134C45.0739 114.97 45.3789 114.665 48.6363 111.408C51.8936 108.151 72.353 87.6936 74.0948 85.952C75.8367 84.2103 76.2205 81.711 76.3681 79.743C76.4173 79.0542 76.683 78.4244 77.0668 77.9127C77.2833 77.7061 77.5195 77.4994 77.8147 77.3026C78.5233 76.8205 79.8124 76.5056 81.1213 77.1452C81.6232 77.4798 82.3022 77.4306 82.745 76.9878L88.5315 71.2019C89.0334 70.7 89.0334 69.8833 88.5315 69.3815L84.0047 64.8551L108.646 40.2159C108.646 40.2159 112.396 40.452 113.193 39.9994C113.892 39.5664 114.138 39.2024 115.014 37.874C115.889 36.5456 120.81 28.8901 120.81 28.8901C120.81 28.8901 121.174 28.0931 120.377 27.3059Z" fill="white" />
</svg>  