<svg width="64" height="64" viewBox="0 0 64 64" fill="none" xmlns="http://www.w3.org/2000/svg">
<rect width="64" height="64" rx="32" fill="#439BF2"/>
<path d="M24.4965 42V39.824L33.6165 31.024C34.4272 30.256 35.0245 29.584 35.4085 29.008C35.8138 28.4107 36.0805 27.8667 36.2085 27.376C36.3578 26.864 36.4325 26.3733 36.4325 25.904C36.4325 24.752 36.0272 23.8453 35.2165 23.184C34.4058 22.5227 33.2218 22.192 31.6645 22.192C30.4698 22.192 29.3925 22.3947 28.4325 22.8C27.4725 23.184 26.6405 23.792 25.9365 24.624L23.7605 22.736C24.6138 21.648 25.7552 20.816 27.1845 20.24C28.6352 19.6427 30.2245 19.344 31.9525 19.344C33.5098 19.344 34.8645 19.6 36.0165 20.112C37.1685 20.6027 38.0538 21.3173 38.6725 22.256C39.3125 23.1947 39.6325 24.304 39.6325 25.584C39.6325 26.3093 39.5365 27.024 39.3445 27.728C39.1525 28.432 38.7898 29.1787 38.2565 29.968C37.7232 30.7573 36.9552 31.6427 35.9525 32.624L27.8245 40.464L27.0565 39.216H40.5925V42H24.4965Z" fill="white"/>
</svg>
