<svg width="76" height="82" viewBox="0 0 76 82" fill="none" xmlns="http://www.w3.org/2000/svg">
<path fill-rule="evenodd" clip-rule="evenodd" d="M5.34783 3.49467C4.86642 3.49467 4.492 3.88694 4.492 4.35051V77.6138C4.492 78.0952 4.88425 78.4697 5.34783 78.4697H41.9706C42.452 78.4697 42.8264 78.0774 42.8264 77.6138V4.35051C42.8264 4.11873 42.7373 3.90477 42.5768 3.7443C42.4163 3.58383 42.2024 3.49467 41.9706 3.49467H5.34783ZM5.34783 82C2.94078 82 0.979492 80.0387 0.979492 77.6317V4.36835C0.979492 1.9613 2.94078 0 5.34783 0H41.9884C44.3954 0 46.3567 1.9613 46.3567 4.36835V77.6317C46.3567 80.0387 44.3954 82 41.9884 82H5.34783Z" fill="#FF7759"/>
<path d="M14.9583 65.4003H11.4458V68.9128H14.9583V65.4003Z" fill="#FF7759"/>
<path d="M35.8912 65.4003H32.3787V68.9128H35.8912V65.4003Z" fill="#FF7759"/>
<path d="M14.9583 54.9341H11.4458V58.4466H14.9583V54.9341Z" fill="#FF7759"/>
<path d="M35.8912 54.9341H32.3787V58.4466H35.8912V54.9341Z" fill="#FF7759"/>
<path d="M14.9583 44.4501H11.4458V47.9626H14.9583V44.4501Z" fill="#FF7759"/>
<path d="M35.8912 44.4501H32.3787V47.9626H35.8912V44.4501Z" fill="#FF7759"/>
<path d="M14.9583 33.9839H11.4458V37.4964H14.9583V33.9839Z" fill="#FF7759"/>
<path d="M35.8912 33.9839H32.3787V37.4964H35.8912V33.9839Z" fill="#FF7759"/>
<path d="M14.9583 23.5177H11.4458V27.0302H14.9583V23.5177Z" fill="#FF7759"/>
<path d="M35.8912 23.5177H32.3787V27.0302H35.8912V23.5177Z" fill="#FF7759"/>
<path d="M14.9583 13.0515H11.4458V16.564H14.9583V13.0515Z" fill="#FF7759"/>
<path d="M35.8912 13.0515H32.3787V16.564H35.8912V13.0515Z" fill="#FF7759"/>
<path fill-rule="evenodd" clip-rule="evenodd" d="M23.6597 71.5338C22.6969 71.5338 21.8945 70.7493 21.8945 69.7686V12.1957C21.8945 11.2329 22.6791 10.4305 23.6597 10.4305C24.6225 10.4305 25.4249 11.2151 25.4249 12.1957V69.7686C25.4249 70.7315 24.6404 71.5338 23.6597 71.5338Z" fill="#FF7759"/>
<path fill-rule="evenodd" clip-rule="evenodd" d="M64.9002 34.893C60.8172 34.893 57.5008 38.2094 57.5008 42.2924V54.0602C57.5008 54.5416 57.8931 54.916 58.3566 54.916H71.4438C71.9252 54.916 72.2997 54.5238 72.2997 54.0602V42.2924C72.2997 38.2094 68.9833 34.893 64.9002 34.893ZM58.3566 58.4464C57.8752 58.4464 57.5008 58.8386 57.5008 59.3022V71.07C57.5008 75.153 60.8172 78.4694 64.9002 78.4694C68.9833 78.4694 72.2997 75.153 72.2997 71.07V59.3022C72.2997 58.8208 71.9074 58.4464 71.4438 58.4464H58.3566ZM64.9002 81.9998C58.8737 81.9998 53.9883 77.0965 53.9883 71.0878V42.3102C53.9883 36.2837 58.8915 31.3983 64.9002 31.3983C70.9267 31.3983 75.8122 36.3015 75.8122 42.3102V71.0878C75.8122 77.0965 70.9089 81.9998 64.9002 81.9998Z" fill="#FF7759"/>
</svg>
