<svg width="29" height="57" viewBox="0 0 29 57" fill="none" xmlns="http://www.w3.org/2000/svg">
<path fill-rule="evenodd" clip-rule="evenodd" d="M24.1966 3.11381C24.5168 3.11381 24.7858 3.3828 24.7858 3.70303V10.8762C24.7858 11.1964 24.5168 11.4654 24.1966 11.4654H15.7169H13.2959H4.81625C4.49602 11.4654 4.22703 11.1964 4.22703 10.8762V3.70303C4.22703 3.3828 4.49602 3.11381 4.81625 3.11381H6.95539C7.27562 3.11381 7.54461 3.3828 7.54461 3.70303V5.49632C7.54461 6.16239 8.0826 6.70037 8.74867 6.70037C9.41475 6.70037 9.95274 6.16239 9.95274 5.49632V3.70303C9.95274 3.3828 10.2217 3.11381 10.542 3.11381H12.6811C13.0013 3.11381 13.2703 3.3828 13.2703 3.70303V5.49632V5.52193V5.54755V5.57317V5.59878V5.62441V5.65002V5.67564V5.70126V5.72688L13.2831 5.7525L13.2959 5.77812L13.3087 5.80373L13.3216 5.82935L13.3344 5.85497L13.3472 5.88059L13.36 5.90621L13.3728 5.93182L13.3856 5.95745L13.3984 5.98306L13.4112 6.00869L13.424 6.0343L13.4368 6.05991L13.4496 6.08554L13.4625 6.11115L13.4753 6.13678L13.4881 6.16239L13.5009 6.18801L13.5137 6.21363L13.5265 6.23924L13.5393 6.26486L13.5649 6.29048L13.5905 6.3161L13.6162 6.34172L13.6418 6.36734L13.6674 6.39295L13.693 6.40577L13.7186 6.41858L13.7443 6.43138L13.7699 6.44419L13.7955 6.457L13.8211 6.46981L13.8467 6.48262L13.8723 6.49543L13.898 6.50824L13.9236 6.52104L13.9492 6.53386L13.9748 6.54667L14.0004 6.55947L14.0261 6.57228L14.0517 6.58509L14.0773 6.59791L14.1029 6.61071L14.1285 6.62352L14.1542 6.63633L14.1798 6.64914H14.2054H14.231H14.2566H14.2822H14.3079H14.3335H14.3591H14.3847H14.4103H14.436H14.4616H14.4872H14.5128H14.5384H14.564H14.5897H14.6153H14.6409L14.6665 6.63633L14.6921 6.62352L14.7178 6.61071L14.7434 6.59791L14.769 6.58509L14.7946 6.57228L14.8202 6.55947L14.8458 6.54667L14.8715 6.53386L14.8971 6.52104L14.9227 6.50824L14.9483 6.49543L14.9739 6.48262L14.9996 6.46981L15.0252 6.457L15.0508 6.44419L15.0764 6.43138L15.102 6.41858L15.1276 6.40577L15.1533 6.39295L15.1789 6.36734L15.2045 6.34172L15.2301 6.3161L15.2557 6.29048L15.2814 6.26486L15.2942 6.23924L15.307 6.21363L15.3198 6.18801L15.3326 6.16239L15.3454 6.13678L15.3582 6.11115L15.371 6.08554L15.3838 6.05991L15.3966 6.0343L15.4095 6.00869L15.4223 5.98306L15.4351 5.95745L15.4479 5.93182L15.4607 5.90621L15.4735 5.88059L15.4863 5.85497L15.4991 5.82935L15.5119 5.80373L15.5247 5.77812L15.5375 5.7525L15.5504 5.72688V5.70126V5.67564V5.65002V5.62441V5.59878V5.57317V5.54755V5.52193V5.49632V3.70303C15.5504 3.3828 15.8193 3.11381 16.1396 3.11381H18.2787C18.5989 3.11381 18.8679 3.3828 18.8679 3.70303V5.49632C18.8679 6.16239 19.4059 6.70037 20.072 6.70037C20.7381 6.70037 21.2761 6.16239 21.2761 5.49632V3.70303C21.2761 3.3828 21.5451 3.11381 21.8653 3.11381H24.1966ZM13.2959 13.8735H15.7169H20.2513C20.5716 13.8735 20.8405 14.1425 20.8405 14.4627V18.0493C20.8405 18.3695 20.5716 18.6385 20.2513 18.6385H15.7169H13.2959H8.76148C8.44125 18.6385 8.17226 18.3695 8.17226 18.0493V14.4627C8.17226 14.1425 8.44125 13.8735 8.76148 13.8735H13.2959ZM13.2959 21.0467H15.7169H24.4143C25.6056 21.0467 26.5791 22.0202 26.5791 23.1986V52.3395C26.5791 53.5308 25.6056 54.5043 24.4143 54.5043H15.7169H13.2959H4.5985C3.40724 54.5043 2.43374 53.5308 2.43374 52.3395V23.1986C2.43374 22.0074 3.40724 21.0467 4.5985 21.0467H13.2959ZM13.2959 56.9124H15.7169H24.4143C26.9377 56.9124 29 54.8629 29 52.3395V23.1986C29 20.6752 26.9505 18.6257 24.4143 18.6257H23.8379C23.5177 18.6257 23.2487 18.3567 23.2487 18.0365V14.4499C23.2487 14.1297 23.5177 13.8607 23.8379 13.8607H25.977C26.6431 13.8607 27.1811 13.3227 27.1811 12.6566V1.89693C27.1811 1.23085 26.6431 0.692871 25.977 0.692871H15.7041H13.2959H3.02297C2.35689 0.692871 1.8189 1.23085 1.8189 1.89693V12.6566C1.8189 13.3227 2.35689 13.8607 3.02297 13.8607H5.1621C5.48233 13.8607 5.75132 14.1297 5.75132 14.4499V18.0365C5.75132 18.3567 5.48233 18.6257 5.1621 18.6257H4.58569C2.06228 18.6257 0 20.6752 0 23.1986V52.3395C0 54.8629 2.04947 56.9124 4.58569 56.9124H13.2959Z" fill="#273BAC"/>
<path fill-rule="evenodd" clip-rule="evenodd" d="M6.82753 34.7653H22.1857C22.9159 34.7653 23.4923 34.1761 23.4923 33.4588C23.4923 32.7414 22.9031 32.1522 22.1857 32.1522H6.82753C6.11022 32.1522 5.521 32.7414 5.521 33.4588C5.521 34.1761 6.11022 34.7653 6.82753 34.7653Z" fill="#273BAC"/>
<path fill-rule="evenodd" clip-rule="evenodd" d="M6.82753 40.5807H14.4362C15.1663 40.5807 15.7427 39.9914 15.7427 39.2741C15.7427 38.5568 15.1535 37.9676 14.4362 37.9676H6.82753C6.11022 37.9676 5.521 38.5568 5.521 39.2741C5.521 39.9914 6.11022 40.5807 6.82753 40.5807Z" fill="#273BAC"/>
</svg>
