<svg width="40" height="41" viewBox="0 0 40 41" fill="none" xmlns="http://www.w3.org/2000/svg">
<path fill-rule="evenodd" clip-rule="evenodd" d="M33.3339 0.178794C31.572 0.178794 29.8823 0.878697 28.6365 2.12454C27.3906 3.37039 26.6907 5.06012 26.6907 6.82201C26.6942 7.51203 26.8121 8.1967 27.0395 8.84819L23.8673 10.8744C22.6853 9.49368 21.1961 8.40937 19.5191 7.70847C17.8422 7.00756 16.0243 6.70962 14.2113 6.83853C12.3984 6.96745 10.6409 7.51964 9.08 8.45078C7.5191 9.38192 6.19828 10.6661 5.22355 12.2001C4.24881 13.7342 3.64734 15.4754 3.46741 17.284C3.28748 19.0926 3.53411 20.9182 4.1875 22.6142C4.84089 24.3102 5.88284 25.8294 7.22969 27.0498C8.57654 28.2702 10.1908 29.1579 11.9428 29.6414C12.1364 28.5346 12.5005 27.4645 13.0223 26.4693C11.5144 26.0866 10.1443 25.288 9.06816 24.1644C7.99204 23.0409 7.25317 21.6377 6.93577 20.1147C6.61837 18.5917 6.73519 17.0102 7.27292 15.5503C7.81065 14.0904 8.74766 12.811 9.97717 11.8578C11.2067 10.9046 12.6793 10.3159 14.2271 10.1589C15.7748 10.0019 17.3356 10.2828 18.7315 10.9697C20.1274 11.6566 21.3023 12.7218 22.1222 14.0439C22.9421 15.3661 23.3742 16.8919 23.3691 18.4476C23.3648 19.0052 23.3092 19.5611 23.203 20.1084H23.3691C24.4242 20.1157 25.4739 20.2609 26.4914 20.5403C26.6169 19.8496 26.6836 19.1496 26.6907 18.4476C26.6908 16.8018 26.3339 15.1756 25.6444 13.6811L28.8165 11.6716C29.608 12.4126 30.5688 12.9485 31.6151 13.2328C32.6614 13.517 33.7613 13.5409 34.8189 13.3023C35.8765 13.0637 36.8597 12.5698 37.6825 11.8639C38.5054 11.1579 39.1429 10.2612 39.5395 9.25219C39.9361 8.24314 40.0798 7.15235 39.9579 6.07503C39.836 4.99771 39.4522 3.96658 38.8402 3.07167C38.2281 2.17676 37.4063 1.44529 36.4465 0.941026C35.4867 0.436767 34.4181 0.175064 33.3339 0.178794ZM33.3339 10.1436C32.677 10.1436 32.0348 9.9488 31.4886 9.58381C30.9423 9.21883 30.5166 8.7001 30.2652 8.09315C30.0138 7.48621 29.948 6.81835 30.0761 6.17402C30.2043 5.52969 30.5206 4.93781 30.9852 4.47327C31.4497 4.00874 32.0416 3.69238 32.6859 3.56421C33.3302 3.43605 33.9981 3.50186 34.605 3.75326C35.212 4.00467 35.7308 4.43038 36.0957 4.97661C36.4607 5.52285 36.6555 6.16506 36.6555 6.82201C36.6555 7.70295 36.3056 8.54782 35.6827 9.17074C35.0597 9.79366 34.2149 10.1436 33.3339 10.1436ZM3.43946 6.82201C3.45056 7.40842 3.61674 7.98144 3.9211 8.48281C3.148 9.346 2.47393 10.293 1.91152 11.3062C1.23707 10.6218 0.719102 9.7992 0.393366 8.89522C0.0676299 7.99124 -0.0581273 7.02736 0.0247689 6.07006C0.107665 5.11277 0.397237 4.18486 0.873518 3.35033C1.3498 2.5158 2.00145 1.79453 2.78351 1.23626C3.56557 0.67799 4.45945 0.296029 5.40345 0.116707C6.34745 -0.0626156 7.31909 -0.0350097 8.25139 0.197598C9.18369 0.430205 10.0544 0.862278 10.8035 1.46403C11.5527 2.06578 12.1623 2.8229 12.5905 3.68312C11.4522 3.87707 10.3384 4.19446 9.26889 4.62974C8.82614 4.11993 8.23853 3.75718 7.58437 3.58981C6.93021 3.42243 6.24057 3.45838 5.60738 3.6929C4.97418 3.92742 4.4275 4.34936 4.04018 4.90246C3.65287 5.45557 3.44331 6.11359 3.43946 6.78881V6.82201ZM23.3691 23.43C25.0115 23.43 26.617 23.9171 27.9826 24.8295C29.3481 25.742 30.4125 27.0389 31.041 28.5562C31.6695 30.0736 31.834 31.7433 31.5136 33.3541C31.1931 34.9649 30.4023 36.4445 29.2409 37.6059C28.0796 38.7672 26.5999 39.5581 24.9891 39.8785C23.3783 40.1989 21.7087 40.0345 20.1913 39.406C18.6739 38.7775 17.377 37.7131 16.4646 36.3475C15.5521 34.982 15.0651 33.3764 15.0651 31.7341C15.0651 29.5317 15.94 27.4196 17.4973 25.8623C19.0546 24.3049 21.1667 23.43 23.3691 23.43ZM23.3691 36.7165C22.3837 36.7165 21.4204 36.4243 20.601 35.8768C19.7817 35.3293 19.1431 34.5511 18.766 33.6407C18.3888 32.7303 18.2902 31.7285 18.4824 30.762C18.6747 29.7956 19.1492 28.9078 19.846 28.211C20.5428 27.5142 21.4306 27.0396 22.3971 26.8474C23.3636 26.6551 24.3654 26.7538 25.2758 27.1309C26.1862 27.508 26.9644 28.1466 27.5118 28.966C28.0593 29.7853 28.3515 30.7486 28.3515 31.7341C28.3515 33.0555 27.8266 34.3228 26.8922 35.2572C25.9578 36.1916 24.6905 36.7165 23.3691 36.7165Z" fill="#FF7759"/>
</svg>
