<svg width="28" height="32" viewBox="0 0 28 32" fill="none" xmlns="http://www.w3.org/2000/svg">
<path fill-rule="evenodd" clip-rule="evenodd" d="M8.15086 12.29H19.5009C20.0709 12.29 20.5209 11.83 20.5209 11.27C20.5209 10.71 20.0609 10.25 19.5009 10.25H8.15086C7.59086 10.25 7.13086 10.71 7.13086 11.27C7.13086 11.84 7.59086 12.29 8.15086 12.29ZM8.15086 17.4H13.3109C13.8809 17.4 14.3309 16.94 14.3309 16.38C14.3309 15.82 13.8709 15.36 13.3109 15.36H8.15086C7.59086 15.36 7.13086 15.82 7.13086 16.38C7.13086 16.94 7.59086 17.4 8.15086 17.4Z" fill="#9E99D1"/>
<path fill-rule="evenodd" clip-rule="evenodd" d="M13.82 0C21.45 0 27.64 6.19 27.64 13.82C27.64 21.45 21.45 27.64 13.82 27.64C13.57 27.64 13.33 27.63 13.08 27.62L6.78 31.82C6.62 31.93 6.44 31.98 6.25 31.98C6.09 31.98 5.94 31.94 5.8 31.87C5.49 31.7 5.29 31.38 5.29 31.02V28.88V26.74V24.7C2.07 22.17 0 18.24 0 13.82C0 6.19 6.19 0 13.82 0ZM10.28 27.19L12.57 25.66C12.59 25.65 12.63 25.65 12.68 25.67C13.05 25.71 13.43 25.72 13.82 25.72C20.39 25.72 25.72 20.39 25.72 13.82C25.72 7.25 20.39 1.92 13.82 1.92C7.25 1.92 1.92 7.25 1.92 13.82C1.92 17.95 4.02 21.58 7.21 23.72V25.31V25.97V28.36C7.21 28.53 7.3 28.69 7.46 28.77C7.53 28.81 7.61 28.82 7.68 28.82C7.77 28.82 7.86 28.79 7.94 28.74L10.28 27.19Z" fill="#9E99D1"/>
</svg>
