<svg width="40" height="40" viewBox="0 0 40 40" fill="none" xmlns="http://www.w3.org/2000/svg">
<rect width="40" height="40" rx="20" fill="#FF7759"/>
<path fill-rule="evenodd" clip-rule="evenodd" d="M24.22 20.7964C25.6975 19.8791 26.8358 18.5052 27.4625 16.8829C28.0892 15.2606 28.1702 13.4783 27.6932 11.8059C27.2163 10.1334 26.2073 8.66197 24.8191 7.61435C23.4309 6.56673 21.7391 6 20 6C18.2609 6 16.5691 6.56673 15.1809 7.61435C13.7928 8.66197 12.7838 10.1334 12.3068 11.8059C11.8298 13.4783 11.9108 15.2606 12.5375 16.8829C13.1642 18.5052 14.3025 19.8791 15.78 20.7964C13.7945 21.5288 12.0335 22.7646 10.6696 24.3828C9.30567 26.0009 8.38573 27.9457 8 30.0265H10C10.5055 27.7606 11.7682 25.7347 13.5797 24.2828C15.3912 22.8309 17.6435 22.0397 19.965 22.0397C22.2866 22.0397 24.5388 22.8309 26.3503 24.2828C28.1618 25.7347 29.4245 27.7606 29.93 30.0265H31.93C31.545 27.9427 30.6242 25.9951 29.2584 24.375C27.8926 22.755 26.1286 21.5183 24.14 20.7865L24.22 20.7964ZM14.01 14.0365C14.01 12.8498 14.3619 11.6897 15.0212 10.703C15.6805 9.71634 16.6175 8.94729 17.7139 8.49316C18.8103 8.03904 20.0167 7.92022 21.1805 8.15173C22.3444 8.38324 23.4135 8.95471 24.2526 9.79382C25.0918 10.6329 25.6632 11.702 25.8947 12.8659C26.1262 14.0298 26.0074 15.2362 25.5533 16.3326C25.0992 17.4289 24.3301 18.366 23.3434 19.0253C22.3567 19.6846 21.1967 20.0365 20.01 20.0365C18.4187 20.0365 16.8926 19.4043 15.7674 18.2791C14.6421 17.1539 14.01 15.6278 14.01 14.0365Z" fill="#F5F6F8"/>
</svg>
