<svg width="100%" height="100%" viewBox="0 0 197 100" fill="none" xmlns="http://www.w3.org/2000/svg">
<path fill-rule="evenodd" clip-rule="evenodd" d="M98.5592 1.28027V4.97028V1.28027ZM113.209 6.11028L113.789 2.46028L113.209 6.11028ZM127.509 9.54027L128.649 6.03027L127.509 9.54027ZM141.089 15.1603L142.769 11.8703L141.089 15.1603ZM153.609 22.8603L155.779 19.8703L153.609 22.8603ZM164.789 32.4003L167.399 29.7903L164.789 32.4003ZM174.329 43.5803L177.319 41.4103L174.329 43.5803ZM182.029 56.1003L185.319 54.4203L182.029 56.1003ZM187.649 69.6803L191.159 68.5403L187.649 69.6803ZM191.079 83.9803L194.729 83.4003L191.079 83.9803ZM192.219 98.6303H195.909H192.219ZM4.88922 98.6303H1.19922H4.88922ZM6.03922 83.9803L2.38922 83.4003L6.03922 83.9803ZM9.45923 69.6803L5.94922 68.5403L9.45923 69.6803ZM15.0792 56.1003L11.7892 54.4203L15.0792 56.1003ZM22.7792 43.5803L19.7892 41.4103L22.7792 43.5803ZM32.3292 32.4003L29.7192 29.7903L32.3292 32.4003ZM43.4992 22.8603L41.3292 19.8703L43.4992 22.8603ZM56.0192 15.1603L54.3392 11.8703L56.0192 15.1603ZM69.6092 9.54027L68.4692 6.03027L69.6092 9.54027ZM83.8992 6.11028L83.3192 2.46028L83.8992 6.11028Z" stroke="#9E99D1" stroke-width="2" stroke-miterlimit="22.9256" stroke-linejoin="round"/>
</svg>
