<svg width="44" height="44" viewBox="0 0 44 44" fill="none" xmlns="http://www.w3.org/2000/svg">
<g clip-path="url(#clip0_822_22036)">
<path fill-rule="evenodd" clip-rule="evenodd" d="M22 4.19835L22.1467 4.45504L39.93 39.0867C40.1451 39.4717 40.2821 39.8953 40.3333 40.3333H39.82H4.18H3.66667C3.70825 39.8958 3.83931 39.4715 4.05168 39.0867L21.8533 4.45504C21.8912 4.36365 21.9405 4.27738 22 4.19835ZM22 0.0367025C20.7533 0.0367025 19.525 0.953369 18.59 2.7867L0.751673 37.3817C-1.08166 41.0484 0.403351 44 4.14335 44H39.7833C43.45 44 45.0267 41.03 43.1567 37.3817L25.355 2.75C24.42 0.916667 23.1917 0 21.9634 0L22 0.0367025Z" fill="#3F464C"/>
<path fill-rule="evenodd" clip-rule="evenodd" d="M20.1667 18.3333V27.4999H23.8333V18.3333H20.1667ZM20.1667 34.8333H23.8333V31.1666H20.1667V34.8333Z" fill="#3F464C"/>
</g>
<defs>
<clipPath id="clip0_822_22036">
<rect width="44" height="44" fill="white"/>
</clipPath>
</defs>
</svg>
