<svg width="132" height="25" viewBox="0 0 132 25" fill="none" xmlns="http://www.w3.org/2000/svg">
<path fill-rule="evenodd" clip-rule="evenodd" d="M61.6702 1.07617L57.0934 24.1818H62.3352L66.9119 1.07617H61.6702Z" fill="#CCCCCC"/>
<path fill-rule="evenodd" clip-rule="evenodd" d="M4.65437 1.07617L0 24.1818H5.23062L9.89607 1.07617H4.65437Z" fill="#CCCCCC"/>
<path fill-rule="evenodd" clip-rule="evenodd" d="M41.1465 24.1818H45.9671L60.0078 1.07617H54.7661L44.9698 17.1227L41.889 1.07617H36.6584L41.1465 24.1818Z" fill="#CCCCCC"/>
<path fill-rule="evenodd" clip-rule="evenodd" d="M76.0542 24.1818L79.7002 5.89677H85.6068L86.5266 1.07617H69.4051L68.4854 5.89677H74.4695L70.8125 24.1818H76.0542Z" fill="#CCCCCC"/>
<path fill-rule="evenodd" clip-rule="evenodd" d="M14.9601 24.1818L18.0298 8.88886L26.0198 24.1818H30.5855L35.1623 1.07617H30.1755L27.0948 16.3691L19.0383 1.07617H14.5501L9.89575 24.1818H14.9601Z" fill="#CCCCCC"/>
<path fill-rule="evenodd" clip-rule="evenodd" d="M98.9831 1.07592H89.3419L84.7762 24.1815H90.0068L93.6638 5.89651H98.2406C98.6957 5.87506 99.1505 5.94438 99.5786 6.10039C100.007 6.25639 100.399 6.49598 100.734 6.80523C100.984 7.0688 101.173 7.38404 101.288 7.72871C101.403 8.07337 101.441 8.43907 101.399 8.79996C101.155 11.1271 99.3155 12.2132 96.9662 12.2132H93.0876L97.9857 24.1815H103.227L99.9805 16.258C101.806 16.0274 103.487 15.1421 104.71 13.7664C105.932 12.3908 106.615 10.6183 106.63 8.77779C106.884 4.21208 103.56 1.02051 98.9831 1.02051V1.07592Z" fill="#CCCCCC"/>
<path fill-rule="evenodd" clip-rule="evenodd" d="M107.626 12.6231C107.819 9.38949 109.247 6.35358 111.615 4.1427C113.982 1.93182 117.109 0.7149 120.348 0.743394C121.898 0.68389 123.443 0.955132 124.88 1.53907C126.318 2.12301 127.614 3.00627 128.683 4.13009C129.753 5.2539 130.57 6.59251 131.082 8.0569C131.594 9.52129 131.788 11.0779 131.652 12.6231C131.461 15.8587 130.035 18.8974 127.667 21.1106C125.299 23.3238 122.171 24.5423 118.93 24.5139C117.377 24.5791 115.829 24.3113 114.388 23.7286C112.948 23.1459 111.648 22.2617 110.578 21.1354C109.507 20.0092 108.69 18.6669 108.181 17.1987C107.672 15.7305 107.483 14.1704 107.626 12.6231ZM126.831 12.6231C126.912 11.6962 126.797 10.7626 126.494 9.88274C126.192 9.0029 125.708 8.19641 125.074 7.51539C124.44 6.83437 123.67 6.294 122.814 5.92923C121.958 5.56445 121.035 5.38339 120.104 5.39776C118.152 5.38471 116.271 6.13116 114.858 7.47941C113.446 8.82765 112.613 10.6721 112.535 12.6231C112.453 13.5509 112.567 14.4857 112.869 15.3669C113.171 16.2481 113.654 17.056 114.289 17.7382C114.923 18.4205 115.693 18.9619 116.55 19.3273C117.407 19.6927 118.331 19.8741 119.262 19.8596C121.211 19.8533 123.083 19.0989 124.491 17.7523C125.9 16.4057 126.737 14.5695 126.831 12.6231Z" fill="#CCCCCC"/>
</svg>
