<svg width="136" height="40" viewBox="0 0 136 40" fill="none" xmlns="http://www.w3.org/2000/svg">
<rect width="136" height="40" rx="20" fill="#872268"/>
<path d="M107.101 23.8046V24.4031C107.1 24.5216 107.075 24.6386 107.027 24.7473C106.98 24.8559 106.912 24.9539 106.826 25.0355C106.74 25.1171 106.638 25.1806 106.527 25.2223C106.417 25.2639 106.298 25.2828 106.18 25.2779H102.175V10.1309C102.172 9.92835 102.129 9.72837 102.048 9.5424C101.968 9.35642 101.852 9.18808 101.707 9.047C101.561 8.90591 101.389 8.79485 101.201 8.72014C101.013 8.64543 100.812 8.60854 100.609 8.61159H94.9924V12.9853H96.0513C96.2877 12.985 96.5152 13.0757 96.6866 13.2386C96.8581 13.4014 96.9603 13.6239 96.9721 13.8601V24.4031C96.971 24.5216 96.946 24.6386 96.8988 24.7473C96.8515 24.8559 96.7829 24.9539 96.697 25.0355C96.6111 25.1171 96.5097 25.1806 96.3988 25.2223C96.2878 25.2639 96.1697 25.2828 96.0513 25.2779H94.9924V29.6516H110.093C110.297 29.6584 110.5 29.6241 110.69 29.5508C110.88 29.4774 111.053 29.3665 111.199 29.2247C111.345 29.0828 111.461 28.913 111.54 28.7253C111.619 28.5376 111.659 28.3359 111.659 28.1323V23.8046H107.101ZM92.184 11.9264C91.2361 10.8376 90.0343 9.99951 88.685 9.48634C87.821 9.16486 86.9262 8.93343 86.0147 8.79575C84.5414 8.65763 81.2726 8.56555 80.3058 8.56555H75.4256V12.9393H76.4846C76.6029 12.9344 76.7211 12.9533 76.832 12.9949C76.9429 13.0365 77.0443 13.1 77.1302 13.1816C77.2161 13.2632 77.2848 13.3613 77.332 13.4699C77.3793 13.5785 77.4042 13.6956 77.4053 13.814V24.3571C77.4042 24.4755 77.3793 24.5926 77.332 24.7012C77.2848 24.8099 77.2161 24.9079 77.1302 24.9895C77.0443 25.0711 76.9429 25.1346 76.832 25.1762C76.7211 25.2179 76.6029 25.2368 76.4846 25.2318H75.4256V29.6056H81.3187C82.884 29.6056 84.4494 29.5135 85.9687 29.3754C86.8707 29.1941 87.7621 28.9635 88.639 28.6848C89.9855 28.1664 91.1862 27.3291 92.138 26.2447C93.0126 25.246 93.6571 24.0672 94.0256 22.7917C94.3549 21.5915 94.5252 20.3532 94.532 19.1086C94.548 17.8625 94.3773 16.621 94.0256 15.4254C93.6934 14.1313 93.0627 12.9329 92.184 11.9264ZM89.2144 20.0754C89.1319 21.2561 88.7169 22.3894 88.0174 23.3442C87.4234 24.074 86.62 24.6042 85.7154 24.8635L85.4392 24.9556H85.3932C84.9399 25.062 84.4773 25.1237 84.012 25.1397H83.0452C82.926 25.1042 82.8214 25.0313 82.7468 24.9319C82.6722 24.8324 82.6315 24.7116 82.6308 24.5873V13.6299C82.6268 13.5044 82.6657 13.3814 82.741 13.2809C82.8163 13.1805 82.9236 13.1087 83.0452 13.0774H83.5056C84.1548 13.0702 84.803 13.1319 85.4392 13.2616H85.4853C85.5831 13.2711 85.6775 13.3026 85.7615 13.3537C86.666 13.6129 87.4694 14.1432 88.0635 14.8729C88.7874 15.8145 89.2052 16.9554 89.2605 18.1417C89.2988 18.4625 89.3142 18.7856 89.3065 19.1086C89.3216 19.4336 89.2906 19.7591 89.2144 20.0754ZM72.0417 25.2318C71.8197 25.2215 71.6045 25.152 71.4183 25.0306C71.2322 24.9092 71.0818 24.7402 70.9828 24.5412L68.865 20.3056C68.5687 19.7332 68.1023 19.2668 67.5299 18.9705C67.8657 18.7267 68.1609 18.4315 68.4046 18.0957L70.6606 13.6299C70.7694 13.4388 70.9222 13.2764 71.1064 13.1563C71.2905 13.0362 71.5007 12.9618 71.7195 12.9393H72.6403V8.61159H69.3715C68.675 8.57084 67.9831 8.74783 67.3918 9.11802C66.9636 9.52254 66.6194 10.0075 66.3789 10.5452L65.8725 11.5121L63.4784 16.2081C63.3696 16.3992 63.2168 16.5615 63.0326 16.6817C62.8484 16.8018 62.6382 16.8762 62.4195 16.8987H61.4527V9.94673C61.4088 9.56755 61.223 9.21905 60.9326 8.97134C60.6422 8.72363 60.2687 8.5951 59.8873 8.61159H54.3166V12.9853H55.3755C55.4939 12.9804 55.612 12.9993 55.7229 13.0409C55.8339 13.0826 55.9353 13.1461 56.0212 13.2277C56.1071 13.3093 56.1757 13.4073 56.2229 13.5159C56.2702 13.6246 56.2951 13.7416 56.2963 13.8601V24.3571C56.2951 24.4755 56.2702 24.5926 56.2229 24.7012C56.1757 24.8099 56.1071 24.9079 56.0212 24.9895C55.9353 25.0711 55.8339 25.1346 55.7229 25.1762C55.612 25.2179 55.4939 25.2368 55.3755 25.2318H54.3166V29.6056H59.9334C60.3126 29.6136 60.6816 29.4821 60.9702 29.2359C61.2588 28.9898 61.4469 28.6462 61.4987 28.2704V21.1803H62.7878C63.0098 21.1907 63.2251 21.2602 63.4112 21.3816C63.5974 21.503 63.7477 21.6719 63.8467 21.8709L65.1819 24.6333L66.7012 27.6719C66.9133 28.2253 67.2617 28.7162 67.714 29.0991C68.3054 29.4693 68.9973 29.6463 69.6937 29.6056C70.7987 29.6056 72.9625 29.5595 72.9625 29.5595V25.2318H72.0417Z" fill="white"/>
<path d="M34.8877 11.0976C42.0698 10.7753 45.7069 11.0055 47.2262 13.0773C47.0421 12.801 46.9039 12.5708 46.7198 12.2946C45.9714 11.2315 45.0538 10.2984 44.0035 9.53225H43.9574C42.3 8.38126 39.2614 8.38126 34.1971 8.74958C33.097 8.87976 31.9899 8.94126 30.8822 8.93373C30.5139 8.88769 30.3298 8.79562 30.606 8.56542L30.9743 8.33522V8.28918C26.7847 10.361 27.9818 11.3738 34.8877 11.0976Z" fill="white"/>
<path d="M28.1882 28.7769C28.5105 29.0531 28.9248 29.3754 29.2471 29.6516C29.7535 29.9739 30.3981 30.3882 30.9045 30.6645C31.3189 30.8486 31.8713 31.0788 32.2857 31.263C34.3114 31.9536 37.9025 31.3551 41.1253 30.8026C42.0921 30.6184 42.0921 30.6184 42.1842 30.6645C43.4733 29.9739 43.3812 29.6976 43.0589 29.5595C42.5064 29.3754 41.5396 29.4214 39.3297 29.6516C33.1604 30.158 30.0298 30.158 28.1882 28.7769Z" fill="white"/>
<path d="M26.4398 12.0185C25.7402 13.0416 25.1536 14.1376 24.6903 15.2873C23.6314 18.464 28.2814 19.0165 35.4635 18.8783C44.6714 18.6942 49.1373 19.2006 48.6308 22.3773C48.6769 22.1471 48.7229 21.8709 48.7689 21.5947C48.861 20.9501 48.9071 20.3516 48.9531 19.707C48.9529 19.06 48.9068 18.4139 48.815 17.7734V17.6353C48.1704 14.1363 39.9754 14.4125 35.0032 14.5506C29.5245 14.7348 24.7364 14.6427 26.7161 11.6501L26.4398 12.0185Z" fill="white"/>
<path d="M24.1368 21.2264C24.2464 21.8957 24.4002 22.557 24.5972 23.2061C24.7813 23.7125 25.0576 24.357 25.2417 24.8174C26.5769 27.6719 33.4828 27.2575 38.9154 26.9352C40.9411 26.7971 42.6906 26.705 43.9797 26.9352C45.453 27.2115 45.6832 27.856 44.8085 28.8229H44.8545C45.0799 28.635 45.295 28.4352 45.499 28.2243C45.8674 27.81 46.3738 27.2115 46.7421 26.7511L46.8802 26.5209C49.1362 23.16 44.2099 22.9298 38.455 23.16C29.9377 23.5283 24.5051 23.0679 24.0907 19.9373C24.0822 20.3675 24.0976 20.7978 24.1368 21.2264Z" fill="white"/>
<path d="M33.2073 7.55225C32.4165 7.65729 31.6518 7.907 30.9514 8.28888H30.9053L30.8593 8.38096L31.3657 8.15076C31.642 8.05868 31.5959 8.24284 31.5959 8.28888C31.4578 8.56512 31.0895 9.02551 29.7083 10.4527C26.7157 13.5834 24.3677 16.2077 24.0455 18.4175C23.9045 20.0648 24.0923 21.7237 24.5979 23.2977C24.0915 20.5814 26.8078 17.1745 30.9974 12.3403C33.7598 9.07155 34.4043 7.55225 33.2073 7.55225Z" fill="white"/>
<path d="M36.154 7V7.04604C38.2718 7.32228 37.7654 9.25593 34.5427 13.2153C28.6496 20.5816 25.0125 25.0474 27.0843 27.6257C28.1434 28.8705 29.4431 29.8884 30.9055 30.6182C28.8798 29.3291 29.11 26.843 36.062 18.0955C39.9293 13.2614 43.3822 8.42722 39.6991 7.41436C38.7472 7.18631 37.7762 7.04759 36.7986 7H36.154Z" fill="white"/>
<path d="M38.3177 22.4691C34.8187 26.7968 31.4118 31.4928 35.4633 31.9532C36.665 32.0603 37.8761 31.9827 39.0543 31.723V31.677C37.3969 31.9072 37.0286 31.1705 37.9494 29.4671C38.776 28.1424 39.6993 26.8806 40.7118 25.6918C44.533 21.0419 48.8607 15.8394 47.2033 13.077C47.0509 12.8059 46.8818 12.5445 46.6969 12.2944C46.3038 11.7579 45.873 11.2502 45.4078 10.7751C44.9487 10.3101 44.4563 9.87923 43.9345 9.48596H43.8885C46.0063 11.2815 44.487 14.7805 38.3177 22.4691Z" fill="white"/>
<path d="M43.0589 27.2113C41.3094 29.2371 38.6852 32.2757 42.0461 30.6643L42.1381 30.6182V30.5722C42.1842 30.4341 42.2763 30.296 43.151 29.4673C45.1307 27.4876 48.1233 24.495 48.6297 22.3772C48.6757 22.147 48.7218 21.8708 48.7678 21.5945C48.9905 20.3317 49.0061 19.0411 48.8139 17.7733V17.6351C48.998 19.9371 47.1104 22.5153 43.0589 27.2113Z" fill="white"/>
</svg>
