<svg width="98" height="29" viewBox="0 0 98 29" fill="none" xmlns="http://www.w3.org/2000/svg">
<path d="M92.8299 18.945V19.6124C92.8286 19.7445 92.8008 19.875 92.7481 19.9961C92.6954 20.1173 92.6189 20.2266 92.5231 20.3176C92.4274 20.4085 92.3143 20.4793 92.1906 20.5258C92.0669 20.5722 91.9352 20.5933 91.8032 20.5877H87.337V3.69852C87.3337 3.47267 87.2859 3.2497 87.1963 3.04233C87.1068 2.83496 86.9773 2.64726 86.8152 2.48995C86.6531 2.33263 86.4617 2.20879 86.2517 2.12549C86.0418 2.04219 85.8175 2.00106 85.5916 2.00446H79.3288V6.88129H80.5095C80.7731 6.88096 81.0268 6.98206 81.2179 7.16363C81.409 7.34521 81.523 7.59335 81.5362 7.85666V19.6124C81.5349 19.7445 81.5071 19.875 81.4544 19.9961C81.4017 20.1173 81.3252 20.2266 81.2294 20.3176C81.1336 20.4085 81.0206 20.4793 80.8969 20.5258C80.7732 20.5722 80.6415 20.5933 80.5095 20.5877H79.3288V25.4646H96.1667C96.3936 25.4722 96.6197 25.4339 96.8315 25.3521C97.0433 25.2703 97.2365 25.1467 97.3994 24.9885C97.5624 24.8304 97.6917 24.641 97.7798 24.4317C97.8679 24.2225 97.9129 23.9976 97.912 23.7705V18.945H92.8299ZM76.1973 5.70058C75.1404 4.48656 73.8003 3.55203 72.2959 2.97983C71.3325 2.62137 70.3348 2.36332 69.3184 2.2098C67.6757 2.0558 64.0309 1.95312 62.9529 1.95312H57.5114V6.82995H58.6921C58.8241 6.82444 58.9558 6.84552 59.0795 6.89194C59.2032 6.93835 59.3163 7.00916 59.412 7.10015C59.5078 7.19113 59.5843 7.30044 59.637 7.42158C59.6897 7.54273 59.7175 7.67322 59.7188 7.80532V19.561C59.7175 19.6931 59.6897 19.8236 59.637 19.9448C59.5843 20.0659 59.5078 20.1752 59.412 20.2662C59.3163 20.3572 59.2032 20.428 59.0795 20.4744C58.9558 20.5208 58.8241 20.5419 58.6921 20.5364H57.5114V25.4132H64.0823C65.8276 25.4132 67.573 25.3106 69.2671 25.1566C70.2729 24.9544 71.2668 24.6974 72.2445 24.3865C73.746 23.8086 75.0848 22.875 76.146 21.6658C77.1213 20.5522 77.8398 19.2378 78.2507 17.8157C78.618 16.4774 78.8078 15.0966 78.8154 13.7089C78.8333 12.3194 78.6429 10.9351 78.2507 9.60205C77.8803 8.15904 77.1771 6.82286 76.1973 5.70058ZM72.8862 14.7869C72.7942 16.1034 72.3315 17.3671 71.5515 18.4317C70.8891 19.2454 69.9933 19.8366 68.9847 20.1257L68.6767 20.2284H68.6254C68.12 20.3471 67.6042 20.4159 67.0853 20.4337H66.0073C65.8745 20.3941 65.7578 20.3129 65.6747 20.202C65.5915 20.0911 65.5461 19.9564 65.5453 19.8177V7.59998C65.5409 7.46009 65.5842 7.32286 65.6682 7.21089C65.7522 7.09892 65.8718 7.01888 66.0073 6.98396H66.5207C67.2446 6.97589 67.9673 7.04472 68.6767 7.1893H68.7281C68.8371 7.19993 68.9424 7.23503 69.0361 7.29197C70.0447 7.58108 70.9405 8.1723 71.6028 8.98602C72.4101 10.0358 72.8759 11.308 72.9375 12.6308C72.9802 12.9885 72.9974 13.3487 72.9889 13.7089C73.0057 14.0712 72.9711 14.4342 72.8862 14.7869ZM53.7382 20.5364C53.4907 20.5249 53.2507 20.4474 53.0431 20.312C52.8356 20.1766 52.6679 19.9883 52.5575 19.7664L50.1961 15.0436C49.8657 14.4053 49.3456 13.8852 48.7074 13.5548C49.0818 13.2831 49.411 12.9539 49.6828 12.5795L52.1982 7.59998C52.3195 7.38691 52.4899 7.20588 52.6953 7.07195C52.9006 6.93802 53.135 6.85505 53.3789 6.82995H54.4056V2.00446H50.7608C49.9842 1.95902 49.2128 2.15637 48.5534 2.56914C48.076 3.02019 47.6922 3.56097 47.424 4.16053L46.8593 5.23857L44.1899 10.4747C44.0686 10.6878 43.8982 10.8688 43.6928 11.0028C43.4875 11.1367 43.2531 11.2197 43.0092 11.2448H41.9312V3.49318C41.8823 3.07038 41.6751 2.68179 41.3512 2.40559C41.0274 2.12939 40.611 1.98607 40.1858 2.00446H33.9742V6.88129H35.155C35.2869 6.87578 35.4187 6.89686 35.5424 6.94327C35.666 6.98969 35.7791 7.06049 35.8749 7.15148C35.9707 7.24247 36.0472 7.35178 36.0999 7.47292C36.1526 7.59406 36.1804 7.72456 36.1817 7.85666V19.561C36.1804 19.6931 36.1526 19.8236 36.0999 19.9448C36.0472 20.0659 35.9707 20.1752 35.8749 20.2662C35.7791 20.3572 35.666 20.428 35.5424 20.4744C35.4187 20.5208 35.2869 20.5419 35.155 20.5364H33.9742V25.4132H40.2371C40.66 25.4222 41.0714 25.2756 41.3932 25.0011C41.715 24.7266 41.9247 24.3435 41.9825 23.9245V16.0189H43.4199C43.6674 16.0305 43.9074 16.108 44.115 16.2433C44.3226 16.3787 44.4902 16.5671 44.6006 16.789L46.0893 19.8691L47.7834 23.2572C48.0199 23.8742 48.4084 24.4216 48.9127 24.8486C49.5721 25.2613 50.3436 25.4587 51.1202 25.4132C52.3522 25.4132 54.7649 25.3619 54.7649 25.3619V20.5364H53.7382Z" fill="#CCCCCC"/>
<path d="M12.3107 4.77646C20.3189 4.41711 24.3744 4.67378 26.0685 6.98386C25.8631 6.67585 25.7091 6.41918 25.5038 6.11117C24.6693 4.92581 23.6462 3.88531 22.475 3.03106H22.4237C20.5756 1.74769 17.1875 1.74769 11.5406 2.15837C10.3141 2.30352 9.07962 2.3721 7.84451 2.36371C7.43383 2.31237 7.22849 2.2097 7.5365 1.95303L7.94718 1.69635V1.64502C3.27569 3.9551 4.6104 5.08447 12.3107 4.77646Z" fill="#CCCCCC"/>
<path d="M4.84113 24.4893C5.20047 24.7973 5.66249 25.1566 6.02183 25.4646C6.58652 25.824 7.30521 26.286 7.86989 26.594C8.33191 26.7993 8.94793 27.056 9.40995 27.2613C11.6687 28.0314 15.6728 27.364 19.2663 26.748C20.3443 26.5427 20.3443 26.5427 20.447 26.594C21.8844 25.824 21.7817 25.516 21.4223 25.362C20.8063 25.1566 19.7283 25.2079 17.2642 25.4646C10.3853 26.0293 6.89453 26.0293 4.84113 24.4893Z" fill="#CCCCCC"/>
<path d="M2.891 5.80326C2.11088 6.94408 1.45681 8.16616 0.940264 9.44805C-0.240442 12.9902 4.9444 13.6062 12.9527 13.4522C23.2197 13.2468 28.1992 13.8115 27.6345 17.3536C27.6858 17.097 27.7372 16.789 27.7885 16.4809C27.8912 15.7623 27.9425 15.0949 27.9938 14.3762C27.9936 13.6548 27.9422 12.9343 27.8398 12.2201V12.0661C27.1211 8.16467 17.9835 8.47268 12.4393 8.62669C6.33044 8.83203 0.991599 8.72936 3.19901 5.39258L2.891 5.80326Z" fill="#CCCCCC"/>
<path d="M0.323822 16.0702C0.446041 16.8165 0.617532 17.5539 0.837173 18.2776C1.04251 18.8423 1.35052 19.561 1.55586 20.0743C3.04458 23.2571 10.7448 22.7951 16.8024 22.4357C19.0611 22.2817 21.0118 22.1791 22.4492 22.4357C24.0919 22.7438 24.3486 23.4624 23.3733 24.5405H23.4246C23.6759 24.331 23.9158 24.1082 24.1433 23.8731C24.554 23.4111 25.1186 22.7438 25.5293 22.2304L25.6833 21.9737C28.1988 18.2263 22.7059 17.9696 16.289 18.2263C6.79204 18.6369 0.734503 18.1236 0.272488 14.6328C0.263015 15.1125 0.280153 15.5924 0.323822 16.0702Z" fill="#CCCCCC"/>
<path d="M10.4373 0.823242C9.55549 0.940368 8.70281 1.2188 7.92184 1.64461H7.87051L7.81917 1.74727L8.38386 1.4906C8.69187 1.38793 8.64053 1.59327 8.64053 1.64461C8.48653 1.95262 8.07585 2.46597 6.5358 4.05735C3.19902 7.54813 0.580929 10.4742 0.221583 12.9383C0.0643676 14.7751 0.273766 16.6247 0.837606 18.3798C0.272921 15.3511 3.30169 11.5523 7.97318 6.16209C11.0533 2.5173 11.772 0.823242 10.4373 0.823242Z" fill="#CCCCCC"/>
<path d="M13.7231 0.20752V0.258854C16.0845 0.566864 15.5199 2.72294 11.9264 7.13775C5.35551 15.3514 1.30005 20.3309 3.61012 23.2056C4.79102 24.5936 6.24031 25.7286 7.87093 26.5424C5.61219 25.105 5.86886 22.3329 13.6205 12.5793C17.9326 7.18908 21.7827 1.79891 17.6759 0.669536C16.6146 0.415258 15.5319 0.260582 14.4418 0.20752H13.7231Z" fill="#CCCCCC"/>
<path d="M16.136 17.456C12.2345 22.2815 8.43571 27.5176 12.9532 28.031C14.2932 28.1504 15.6436 28.0638 16.9573 27.7743V27.723C15.1093 27.9797 14.6986 27.1583 15.7253 25.2589C16.647 23.7819 17.6765 22.3749 18.8054 21.0494C23.0662 15.8646 27.8917 10.0637 26.0436 6.98362C25.8737 6.6813 25.6851 6.38984 25.4789 6.11093C25.0407 5.5128 24.5603 4.94668 24.0416 4.41687C23.5297 3.89839 22.9807 3.41799 22.3988 2.97949H22.3475C24.7089 4.98156 23.0149 8.88302 16.136 17.456Z" fill="#CCCCCC"/>
<path d="M21.4223 22.7436C19.4716 25.0024 16.5455 28.3905 20.2929 26.5937L20.3956 26.5424V26.4911C20.4469 26.3371 20.5496 26.1831 21.525 25.259C23.7324 23.0516 27.0692 19.7148 27.6339 17.3534C27.6852 17.0968 27.7365 16.7887 27.7879 16.4807C28.0362 15.0727 28.0535 13.6336 27.8392 12.2199V12.0659C28.0445 14.6327 25.9398 17.5074 21.4223 22.7436Z" fill="#CCCCCC"/>
</svg>
