<svg width="92" height="57" viewBox="0 0 92 57" fill="none" xmlns="http://www.w3.org/2000/svg">
<path d="M62.8501 0.463307L2.53569 23.3108C-0.762561 24.2617 -0.657462 27.5199 1.77994 28.3157L16.8948 33.0354L22.6755 50.7628C23.3812 52.7047 23.9517 53.4354 25.1529 53.4504C26.3541 53.4655 26.8997 53.005 28.2109 51.8489C29.7425 50.4075 32.0798 48.1402 35.7734 44.5517L51.4889 56.1631C54.3817 57.7597 56.4938 56.9339 57.1945 53.4805L67.0292 4.70248C68.1052 0.468313 65.6178 -0.792929 62.8501 0.463307ZM19.2671 31.9243L53.621 10.3681C55.3176 9.23695 55.8482 10.5032 55.0824 11.369L26.5543 37.0193L25.0878 49.8219L19.2671 31.9243Z" fill="white"/>
<rect x="52" y="13" width="40" height="40" rx="20" fill="#273BAC"/>
<path fill-rule="evenodd" clip-rule="evenodd" d="M64.5 24H79.5C80.163 24 80.7989 24.2634 81.2678 24.7322C81.7366 25.2011 82 25.837 82 26.5V36.5C82 37.163 81.7366 37.7989 81.2678 38.2678C80.7989 38.7366 80.163 39 79.5 39H67.5833C67.3954 39.0011 67.2133 39.0657 67.0667 39.1833L63.3583 42.15C63.2095 42.2694 63.0242 42.3341 62.8333 42.3333C62.7094 42.3305 62.5874 42.3022 62.475 42.25C62.3332 42.1825 62.2134 42.0762 62.1293 41.9435C62.0453 41.8108 62.0004 41.6571 62 41.5V26.5C62 25.837 62.2634 25.2011 62.7322 24.7322C63.2011 24.2634 63.837 24 64.5 24ZM63.6667 39.7667L66.025 37.8833C66.4671 37.5287 67.0166 37.3347 67.5833 37.3333H79.5C79.721 37.3333 79.933 37.2456 80.0893 37.0893C80.2455 36.933 80.3333 36.721 80.3333 36.5V26.5C80.3333 26.279 80.2455 26.067 80.0893 25.9108C79.933 25.7545 79.721 25.6667 79.5 25.6667H64.5C64.279 25.6667 64.067 25.7545 63.9107 25.9108C63.7545 26.067 63.6667 26.279 63.6667 26.5V39.7833V39.7667ZM76.1667 32.3333V30.6667H74.5V32.3333H76.1667ZM69.5 32.3333V30.6667H67.8333V32.3333H69.5ZM72.8333 32.3333V30.6667H71.1667V32.3333H72.8333Z" fill="white"/>
</svg>
